<?xml version="1.0" encoding="UTF-8"?>
<svg xmlns="http://www.w3.org/2000/svg" xmlns:xlink="http://www.w3.org/1999/xlink" width="854" height="480" viewBox="0 0 854 480">
<defs>
<g>
<g id="glyph-0-0">
<path d="M 7.707031 -6.960938 C 7.707031 -6.476562 7.613281 -6.050781 7.425781 -5.679688 C 7.234375 -5.308594 6.976562 -5.003906 6.640625 -4.757812 C 6.3125 -4.515625 5.949219 -4.339844 5.554688 -4.226562 C 5.160156 -4.113281 4.738281 -4.054688 4.296875 -4.054688 L 3.261719 -4.054688 L 3.261719 -1.257812 C 3.261719 -1.105469 3.285156 -0.972656 3.335938 -0.855469 C 3.386719 -0.742188 3.488281 -0.652344 3.644531 -0.59375 C 3.722656 -0.5625 3.863281 -0.535156 4.058594 -0.507812 C 4.257812 -0.480469 4.4375 -0.464844 4.601562 -0.460938 L 4.601562 0 L 0.636719 0 L 0.636719 -0.460938 C 0.742188 -0.472656 0.894531 -0.484375 1.089844 -0.507812 C 1.289062 -0.53125 1.425781 -0.558594 1.503906 -0.59375 C 1.632812 -0.648438 1.726562 -0.730469 1.785156 -0.839844 C 1.84375 -0.949219 1.875 -1.085938 1.875 -1.257812 L 1.875 -7.921875 C 1.875 -8.074219 1.851562 -8.210938 1.808594 -8.332031 C 1.765625 -8.453125 1.664062 -8.546875 1.503906 -8.605469 C 1.339844 -8.664062 1.175781 -8.703125 1.011719 -8.726562 C 0.847656 -8.75 0.710938 -8.765625 0.59375 -8.777344 L 0.59375 -9.238281 L 4.8125 -9.238281 C 5.671875 -9.238281 6.367188 -9.03125 6.902344 -8.617188 C 7.441406 -8.203125 7.707031 -7.648438 7.707031 -6.960938 M 5.730469 -5.382812 C 5.875 -5.59375 5.972656 -5.808594 6.023438 -6.03125 C 6.070312 -6.253906 6.09375 -6.457031 6.09375 -6.632812 C 6.09375 -6.882812 6.0625 -7.132812 6.003906 -7.390625 C 5.945312 -7.644531 5.847656 -7.867188 5.703125 -8.058594 C 5.550781 -8.265625 5.351562 -8.421875 5.105469 -8.535156 C 4.855469 -8.648438 4.546875 -8.703125 4.179688 -8.703125 L 3.261719 -8.703125 L 3.261719 -4.621094 L 3.925781 -4.621094 C 4.394531 -4.621094 4.773438 -4.695312 5.066406 -4.839844 C 5.359375 -4.984375 5.582031 -5.167969 5.730469 -5.382812 Z "/>
</g>
<g id="glyph-0-1">
<path d="M 8.40625 -2.722656 L 8.230469 0 L 0.558594 0 L 0.558594 -0.460938 C 0.691406 -0.472656 0.863281 -0.488281 1.082031 -0.515625 C 1.296875 -0.546875 1.4375 -0.574219 1.503906 -0.605469 C 1.644531 -0.671875 1.738281 -0.753906 1.792969 -0.859375 C 1.847656 -0.964844 1.875 -1.097656 1.875 -1.257812 L 1.875 -7.898438 C 1.875 -8.039062 1.851562 -8.167969 1.804688 -8.277344 C 1.753906 -8.390625 1.65625 -8.480469 1.503906 -8.546875 C 1.386719 -8.605469 1.230469 -8.65625 1.03125 -8.699219 C 0.835938 -8.742188 0.675781 -8.765625 0.558594 -8.777344 L 0.558594 -9.238281 L 7.707031 -9.238281 L 7.707031 -7.011719 L 7.21875 -7.011719 C 7.132812 -7.339844 6.945312 -7.691406 6.65625 -8.0625 C 6.367188 -8.433594 6.09375 -8.636719 5.832031 -8.671875 C 5.699219 -8.6875 5.539062 -8.703125 5.351562 -8.710938 C 5.164062 -8.71875 4.953125 -8.722656 4.714844 -8.722656 L 3.261719 -8.722656 L 3.261719 -5.050781 L 4.304688 -5.050781 C 4.636719 -5.050781 4.882812 -5.082031 5.035156 -5.144531 C 5.191406 -5.210938 5.324219 -5.316406 5.441406 -5.460938 C 5.539062 -5.589844 5.621094 -5.757812 5.6875 -5.964844 C 5.753906 -6.175781 5.796875 -6.375 5.820312 -6.5625 L 6.308594 -6.5625 L 6.308594 -2.941406 L 5.820312 -2.941406 C 5.804688 -3.152344 5.757812 -3.371094 5.679688 -3.601562 C 5.605469 -3.835938 5.523438 -4.003906 5.441406 -4.109375 C 5.308594 -4.277344 5.15625 -4.386719 4.984375 -4.441406 C 4.8125 -4.492188 4.585938 -4.519531 4.304688 -4.519531 L 3.261719 -4.519531 L 3.261719 -1.75 C 3.261719 -1.472656 3.28125 -1.253906 3.320312 -1.09375 C 3.359375 -0.933594 3.433594 -0.8125 3.546875 -0.730469 C 3.660156 -0.648438 3.816406 -0.59375 4.011719 -0.570312 C 4.207031 -0.546875 4.484375 -0.535156 4.84375 -0.535156 C 4.988281 -0.535156 5.175781 -0.535156 5.410156 -0.535156 C 5.644531 -0.535156 5.84375 -0.542969 6.003906 -0.558594 C 6.167969 -0.578125 6.335938 -0.609375 6.511719 -0.652344 C 6.6875 -0.699219 6.8125 -0.761719 6.886719 -0.839844 C 7.085938 -1.046875 7.296875 -1.363281 7.515625 -1.785156 C 7.734375 -2.210938 7.875 -2.523438 7.9375 -2.722656 Z "/>
</g>
<g id="glyph-0-2">
<path d="M 9.636719 0 L 7.148438 0 C 6.597656 -0.863281 6.097656 -1.609375 5.65625 -2.238281 C 5.210938 -2.867188 4.726562 -3.519531 4.207031 -4.1875 L 3.261719 -4.1875 L 3.261719 -1.257812 C 3.261719 -1.105469 3.285156 -0.972656 3.332031 -0.855469 C 3.382812 -0.742188 3.484375 -0.652344 3.640625 -0.59375 C 3.71875 -0.5625 3.855469 -0.535156 4.050781 -0.507812 C 4.246094 -0.480469 4.410156 -0.464844 4.542969 -0.460938 L 4.542969 0 L 0.636719 0 L 0.636719 -0.460938 C 0.742188 -0.472656 0.894531 -0.484375 1.089844 -0.507812 C 1.289062 -0.53125 1.425781 -0.558594 1.503906 -0.59375 C 1.632812 -0.648438 1.726562 -0.730469 1.785156 -0.839844 C 1.84375 -0.949219 1.875 -1.085938 1.875 -1.257812 L 1.875 -7.9375 C 1.875 -8.089844 1.851562 -8.222656 1.808594 -8.339844 C 1.765625 -8.457031 1.664062 -8.546875 1.503906 -8.605469 C 1.394531 -8.644531 1.253906 -8.679688 1.082031 -8.714844 C 0.90625 -8.746094 0.757812 -8.765625 0.636719 -8.777344 L 0.636719 -9.238281 L 4.902344 -9.238281 C 5.292969 -9.238281 5.660156 -9.199219 6.003906 -9.117188 C 6.34375 -9.039062 6.65625 -8.910156 6.933594 -8.730469 C 7.203125 -8.558594 7.417969 -8.328125 7.578125 -8.050781 C 7.738281 -7.769531 7.820312 -7.433594 7.820312 -7.039062 C 7.820312 -6.683594 7.765625 -6.367188 7.65625 -6.09375 C 7.546875 -5.820312 7.386719 -5.582031 7.175781 -5.382812 C 6.980469 -5.199219 6.746094 -5.035156 6.472656 -4.898438 C 6.199219 -4.761719 5.894531 -4.644531 5.566406 -4.550781 C 6.023438 -3.949219 6.402344 -3.441406 6.703125 -3.027344 C 7.003906 -2.613281 7.375 -2.113281 7.8125 -1.523438 C 8.003906 -1.261719 8.175781 -1.070312 8.328125 -0.945312 C 8.484375 -0.824219 8.636719 -0.722656 8.789062 -0.644531 C 8.902344 -0.589844 9.042969 -0.542969 9.210938 -0.515625 C 9.382812 -0.484375 9.523438 -0.464844 9.636719 -0.460938 L 9.636719 0 M 6.210938 -6.882812 C 6.210938 -7.445312 6.050781 -7.886719 5.730469 -8.214844 C 5.40625 -8.539062 4.953125 -8.703125 4.367188 -8.703125 L 3.261719 -8.703125 L 3.261719 -4.746094 L 4.113281 -4.746094 C 4.714844 -4.746094 5.210938 -4.9375 5.613281 -5.320312 C 6.011719 -5.703125 6.210938 -6.226562 6.210938 -6.882812 Z "/>
</g>
<g id="glyph-0-3">
<path d="M 2.976562 -5.554688 C 2.976562 -5.316406 2.886719 -5.105469 2.710938 -4.933594 C 2.535156 -4.761719 2.328125 -4.675781 2.082031 -4.675781 C 1.839844 -4.675781 1.628906 -4.761719 1.453125 -4.933594 C 1.277344 -5.105469 1.191406 -5.316406 1.191406 -5.554688 C 1.191406 -5.796875 1.277344 -6.007812 1.453125 -6.183594 C 1.625 -6.359375 1.835938 -6.445312 2.082031 -6.445312 C 2.332031 -6.445312 2.542969 -6.359375 2.714844 -6.183594 C 2.886719 -6.007812 2.976562 -5.796875 2.976562 -5.554688 M 2.976562 -0.75 C 2.976562 -0.503906 2.886719 -0.296875 2.710938 -0.125 C 2.535156 0.0429688 2.328125 0.128906 2.082031 0.128906 C 1.839844 0.128906 1.628906 0.0429688 1.453125 -0.125 C 1.277344 -0.296875 1.191406 -0.503906 1.191406 -0.75 C 1.191406 -0.992188 1.277344 -1.203125 1.453125 -1.375 C 1.628906 -1.550781 1.839844 -1.640625 2.082031 -1.640625 C 2.328125 -1.640625 2.535156 -1.550781 2.710938 -1.375 C 2.886719 -1.203125 2.976562 -0.992188 2.976562 -0.75 Z "/>
</g>
<g id="glyph-0-4">
</g>
<g id="glyph-0-5">
<path d="M 5.019531 -8.65625 C 5.257812 -8.40625 5.433594 -8.121094 5.550781 -7.808594 C 5.664062 -7.492188 5.722656 -7.148438 5.722656 -6.78125 C 5.722656 -5.976562 5.464844 -5.320312 4.953125 -4.8125 C 4.441406 -4.304688 3.738281 -3.996094 2.84375 -3.894531 L 2.84375 -2.453125 L 2.246094 -2.453125 L 2.246094 -4.921875 C 2.519531 -4.945312 2.789062 -4.988281 3.058594 -5.054688 C 3.328125 -5.121094 3.570312 -5.234375 3.78125 -5.386719 C 4.003906 -5.546875 4.175781 -5.742188 4.300781 -5.96875 C 4.421875 -6.195312 4.484375 -6.515625 4.484375 -6.921875 C 4.484375 -7.574219 4.347656 -8.074219 4.070312 -8.421875 C 3.796875 -8.769531 3.394531 -8.945312 2.863281 -8.945312 C 2.664062 -8.945312 2.492188 -8.914062 2.339844 -8.859375 C 2.191406 -8.796875 2.082031 -8.742188 2.011719 -8.691406 C 2.035156 -8.585938 2.0625 -8.4375 2.101562 -8.242188 C 2.136719 -8.046875 2.15625 -7.898438 2.15625 -7.792969 C 2.15625 -7.632812 2.085938 -7.484375 1.945312 -7.351562 C 1.808594 -7.222656 1.605469 -7.15625 1.339844 -7.15625 C 1.105469 -7.15625 0.941406 -7.234375 0.839844 -7.394531 C 0.738281 -7.554688 0.691406 -7.742188 0.691406 -7.957031 C 0.691406 -8.128906 0.738281 -8.300781 0.832031 -8.46875 C 0.929688 -8.632812 1.078125 -8.796875 1.28125 -8.953125 C 1.457031 -9.089844 1.691406 -9.210938 1.988281 -9.308594 C 2.285156 -9.410156 2.59375 -9.460938 2.917969 -9.460938 C 3.375 -9.460938 3.785156 -9.386719 4.140625 -9.242188 C 4.496094 -9.097656 4.789062 -8.902344 5.019531 -8.65625 M 3.457031 -0.75 C 3.457031 -0.503906 3.367188 -0.296875 3.191406 -0.125 C 3.015625 0.0429688 2.808594 0.128906 2.566406 0.128906 C 2.320312 0.128906 2.113281 0.0429688 1.9375 -0.125 C 1.761719 -0.296875 1.671875 -0.503906 1.671875 -0.75 C 1.671875 -0.992188 1.761719 -1.203125 1.9375 -1.375 C 2.113281 -1.550781 2.320312 -1.640625 2.566406 -1.640625 C 2.808594 -1.640625 3.015625 -1.550781 3.191406 -1.375 C 3.367188 -1.203125 3.457031 -0.992188 3.457031 -0.75 Z "/>
</g>
<g id="glyph-0-6">
<path d="M 4.5625 2.136719 C 3.378906 1.988281 2.449219 1.390625 1.773438 0.34375 C 1.097656 -0.699219 0.761719 -2.109375 0.761719 -3.878906 C 0.761719 -5.679688 1.097656 -7.109375 1.773438 -8.160156 C 2.449219 -9.214844 3.378906 -9.816406 4.5625 -9.972656 L 4.5625 -9.433594 C 3.730469 -9.28125 3.097656 -8.75 2.664062 -7.839844 C 2.230469 -6.925781 2.011719 -5.601562 2.011719 -3.867188 C 2.011719 -2.214844 2.222656 -0.925781 2.648438 -0.0078125 C 3.074219 0.90625 3.714844 1.445312 4.5625 1.601562 Z "/>
</g>
<g id="glyph-0-7">
<path d="M 4.238281 -3.878906 C 4.238281 -2.109375 3.902344 -0.699219 3.226562 0.34375 C 2.550781 1.390625 1.621094 1.988281 0.4375 2.136719 L 0.4375 1.601562 C 1.285156 1.445312 1.925781 0.90625 2.351562 -0.0078125 C 2.777344 -0.925781 2.988281 -2.214844 2.988281 -3.867188 C 2.988281 -5.601562 2.769531 -6.925781 2.335938 -7.839844 C 1.902344 -8.75 1.269531 -9.28125 0.4375 -9.433594 L 0.4375 -9.972656 C 1.621094 -9.816406 2.550781 -9.214844 3.226562 -8.160156 C 3.902344 -7.109375 4.238281 -5.679688 4.238281 -3.878906 Z "/>
</g>
<g id="glyph-1-0">
<path d="M 5.167969 -9.855469 C 4.171875 -9.855469 3.375 -9.578125 2.785156 -9.023438 C 2.265625 -8.519531 2.003906 -7.898438 2.003906 -7.160156 C 2.003906 -6.433594 2.265625 -5.820312 2.785156 -5.324219 C 3.367188 -4.769531 4.164062 -4.492188 5.167969 -4.492188 C 6.148438 -4.492188 6.929688 -4.769531 7.511719 -5.324219 C 8.042969 -5.828125 8.308594 -6.441406 8.308594 -7.160156 C 8.308594 -7.898438 8.042969 -8.519531 7.511719 -9.023438 C 6.921875 -9.578125 6.140625 -9.855469 5.167969 -9.855469 M 5.167969 -9.207031 C 5.925781 -9.207031 6.519531 -8.996094 6.953125 -8.582031 C 7.335938 -8.199219 7.527344 -7.726562 7.527344 -7.160156 C 7.527344 -6.597656 7.335938 -6.128906 6.953125 -5.753906 C 6.519531 -5.339844 5.925781 -5.128906 5.167969 -5.128906 C 4.386719 -5.128906 3.78125 -5.339844 3.347656 -5.753906 C 2.964844 -6.128906 2.773438 -6.597656 2.773438 -7.160156 C 2.773438 -7.726562 2.964844 -8.199219 3.347656 -8.582031 C 3.789062 -8.996094 4.398438 -9.207031 5.167969 -9.207031 M 10.859375 0.261719 L 10.859375 -9.871094 C 10.859375 -9.984375 10.816406 -10.070312 10.730469 -10.128906 C 10.660156 -10.191406 10.574219 -10.222656 10.46875 -10.222656 C 10.355469 -10.222656 10.265625 -10.191406 10.195312 -10.128906 C 10.117188 -10.0625 10.078125 -9.96875 10.078125 -9.855469 L 10.078125 0.261719 C 10.078125 0.382812 10.117188 0.480469 10.195312 0.558594 C 10.265625 0.628906 10.355469 0.664062 10.46875 0.664062 C 10.574219 0.664062 10.660156 0.628906 10.730469 0.558594 C 10.816406 0.480469 10.859375 0.382812 10.859375 0.261719 M 1.511719 -1.640625 C 1.378906 -1.640625 1.277344 -1.609375 1.199219 -1.550781 C 1.128906 -1.488281 1.09375 -1.410156 1.09375 -1.316406 C 1.09375 -1.226562 1.128906 -1.15625 1.199219 -1.09375 C 1.277344 -1.023438 1.378906 -0.988281 1.511719 -0.988281 C 3.1875 -0.988281 4.609375 -1.027344 5.78125 -1.105469 C 7.238281 -1.203125 8.472656 -1.359375 9.480469 -1.574219 C 9.59375 -1.609375 9.679688 -1.667969 9.738281 -1.746094 C 9.792969 -1.824219 9.808594 -1.902344 9.792969 -1.980469 C 9.765625 -2.066406 9.714844 -2.132812 9.636719 -2.175781 C 9.53125 -2.21875 9.410156 -2.222656 9.269531 -2.1875 C 8.308594 -1.996094 7.082031 -1.851562 5.597656 -1.757812 C 4.390625 -1.679688 3.03125 -1.640625 1.511719 -1.640625 Z "/>
</g>
<g id="glyph-1-1">
</g>
<g id="glyph-1-2">
<path d="M 6.523438 -8.632812 L 6.523438 -1.628906 C 6.523438 -1.429688 6.476562 -1.289062 6.378906 -1.210938 C 6.292969 -1.140625 6.140625 -1.105469 5.925781 -1.105469 L 3.152344 -1.105469 C 2.933594 -1.105469 2.785156 -1.144531 2.707031 -1.222656 C 2.621094 -1.300781 2.578125 -1.441406 2.578125 -1.640625 L 2.578125 -8.554688 C 2.578125 -8.753906 2.617188 -8.90625 2.695312 -9.011719 C 2.78125 -9.113281 2.925781 -9.167969 3.125 -9.167969 L 5.898438 -9.167969 C 6.125 -9.167969 6.285156 -9.125 6.378906 -9.035156 C 6.476562 -8.949219 6.523438 -8.816406 6.523438 -8.632812 M 5.949219 -9.832031 L 3.019531 -9.832031 C 2.640625 -9.832031 2.339844 -9.714844 2.121094 -9.480469 C 1.914062 -9.253906 1.808594 -8.960938 1.808594 -8.605469 L 1.808594 -1.574219 C 1.808594 -1.203125 1.90625 -0.925781 2.097656 -0.742188 C 2.296875 -0.542969 2.617188 -0.441406 3.058594 -0.441406 L 6.042969 -0.441406 C 6.449219 -0.441406 6.757812 -0.539062 6.964844 -0.730469 C 7.175781 -0.921875 7.277344 -1.207031 7.277344 -1.589844 L 7.277344 -8.699219 C 7.277344 -9.054688 7.152344 -9.335938 6.902344 -9.542969 C 6.667969 -9.734375 6.351562 -9.832031 5.949219 -9.832031 M 10.46875 -5.105469 L 10.46875 -9.871094 C 10.46875 -9.984375 10.425781 -10.074219 10.339844 -10.144531 C 10.269531 -10.195312 10.183594 -10.222656 10.078125 -10.222656 C 9.972656 -10.222656 9.886719 -10.195312 9.816406 -10.144531 C 9.738281 -10.074219 9.699219 -9.984375 9.699219 -9.871094 L 9.699219 0.285156 C 9.699219 0.398438 9.738281 0.492188 9.816406 0.558594 C 9.886719 0.628906 9.972656 0.664062 10.078125 0.664062 C 10.183594 0.664062 10.269531 0.628906 10.339844 0.558594 C 10.425781 0.492188 10.46875 0.398438 10.46875 0.285156 L 10.46875 -4.464844 L 11.914062 -4.464844 C 12.121094 -4.464844 12.226562 -4.574219 12.226562 -4.792969 C 12.226562 -5 12.121094 -5.105469 11.914062 -5.105469 Z "/>
</g>
<g id="glyph-1-3">
<path d="M 6.574219 -7.617188 L 6.574219 -5.78125 C 6.574219 -5.597656 6.523438 -5.46875 6.417969 -5.390625 C 6.324219 -5.3125 6.167969 -5.273438 5.949219 -5.273438 L 3.113281 -5.273438 C 2.921875 -5.273438 2.785156 -5.3125 2.707031 -5.390625 C 2.621094 -5.46875 2.578125 -5.597656 2.578125 -5.78125 L 2.578125 -7.617188 L 6.574219 -7.617188 M 6.574219 -9.621094 L 6.574219 -8.292969 L 2.578125 -8.292969 L 2.578125 -9.582031 C 2.578125 -9.714844 2.535156 -9.816406 2.449219 -9.894531 C 2.378906 -9.957031 2.292969 -9.988281 2.1875 -9.988281 C 2.082031 -9.988281 1.996094 -9.953125 1.925781 -9.882812 C 1.847656 -9.804688 1.808594 -9.699219 1.808594 -9.570312 L 1.808594 -5.664062 C 1.808594 -5.335938 1.914062 -5.078125 2.121094 -4.894531 C 2.320312 -4.714844 2.589844 -4.621094 2.929688 -4.621094 L 6.171875 -4.621094 C 6.5 -4.621094 6.769531 -4.714844 6.980469 -4.894531 C 7.203125 -5.085938 7.316406 -5.347656 7.316406 -5.675781 L 7.316406 -9.621094 C 7.316406 -9.742188 7.277344 -9.835938 7.199219 -9.894531 C 7.132812 -9.957031 7.042969 -9.988281 6.941406 -9.988281 C 6.835938 -9.988281 6.75 -9.957031 6.679688 -9.894531 C 6.609375 -9.835938 6.574219 -9.742188 6.574219 -9.621094 M 10.859375 -4.6875 L 10.859375 -9.84375 C 10.859375 -9.964844 10.816406 -10.0625 10.730469 -10.128906 C 10.660156 -10.191406 10.574219 -10.222656 10.46875 -10.222656 C 10.355469 -10.222656 10.265625 -10.1875 10.195312 -10.117188 C 10.117188 -10.046875 10.078125 -9.953125 10.078125 -9.832031 L 10.078125 -7.578125 L 7.851562 -7.578125 C 7.730469 -7.578125 7.640625 -7.546875 7.578125 -7.488281 C 7.515625 -7.417969 7.488281 -7.339844 7.488281 -7.253906 C 7.496094 -7.164062 7.535156 -7.085938 7.605469 -7.019531 C 7.683594 -6.949219 7.785156 -6.914062 7.917969 -6.914062 L 10.078125 -6.914062 L 10.078125 -4.6875 C 10.078125 -4.566406 10.117188 -4.464844 10.195312 -4.386719 C 10.265625 -4.320312 10.355469 -4.285156 10.46875 -4.285156 C 10.574219 -4.285156 10.660156 -4.320312 10.730469 -4.386719 C 10.816406 -4.464844 10.859375 -4.566406 10.859375 -4.6875 M 10.078125 -3.28125 L 10.078125 -2.472656 L 3.332031 -2.472656 L 3.332031 -3.28125 C 3.332031 -3.402344 3.289062 -3.5 3.203125 -3.566406 C 3.132812 -3.628906 3.046875 -3.660156 2.941406 -3.660156 C 2.839844 -3.660156 2.75 -3.628906 2.683594 -3.566406 C 2.605469 -3.5 2.566406 -3.402344 2.566406 -3.28125 L 2.566406 -0.597656 C 2.566406 -0.320312 2.648438 -0.09375 2.8125 0.078125 C 2.984375 0.261719 3.226562 0.351562 3.527344 0.351562 L 9.816406 0.351562 C 10.140625 0.351562 10.394531 0.261719 10.585938 0.078125 C 10.769531 -0.0859375 10.859375 -0.304688 10.859375 -0.574219 L 10.859375 -3.28125 C 10.859375 -3.402344 10.816406 -3.5 10.730469 -3.566406 C 10.660156 -3.628906 10.574219 -3.660156 10.46875 -3.660156 C 10.355469 -3.660156 10.265625 -3.628906 10.195312 -3.566406 C 10.117188 -3.5 10.078125 -3.402344 10.078125 -3.28125 M 10.078125 -1.808594 L 10.078125 -0.742188 C 10.078125 -0.585938 10.042969 -0.476562 9.972656 -0.417969 C 9.90625 -0.347656 9.777344 -0.3125 9.597656 -0.3125 L 3.828125 -0.3125 C 3.644531 -0.3125 3.515625 -0.351562 3.4375 -0.429688 C 3.367188 -0.5 3.332031 -0.609375 3.332031 -0.753906 L 3.332031 -1.808594 Z "/>
</g>
<g id="glyph-1-4">
<path d="M 10.886719 -9.882812 L 2.488281 -9.882812 C 2.242188 -9.882812 2.121094 -9.773438 2.121094 -9.558594 C 2.113281 -9.332031 2.230469 -9.21875 2.472656 -9.21875 L 6.289062 -9.21875 L 6.289062 -8.777344 C 6.289062 -8.03125 5.875 -7.378906 5.050781 -6.824219 C 4.246094 -6.285156 3.25 -5.984375 2.070312 -5.925781 C 1.929688 -5.925781 1.824219 -5.882812 1.746094 -5.792969 C 1.683594 -5.726562 1.65625 -5.640625 1.667969 -5.546875 C 1.675781 -5.441406 1.71875 -5.359375 1.796875 -5.300781 C 1.882812 -5.222656 1.992188 -5.1875 2.121094 -5.195312 C 3.257812 -5.273438 4.261719 -5.558594 5.128906 -6.054688 C 5.910156 -6.507812 6.421875 -7.027344 6.667969 -7.617188 C 6.890625 -7.042969 7.40625 -6.527344 8.203125 -6.066406 C 9.089844 -5.5625 10.113281 -5.273438 11.277344 -5.195312 C 11.398438 -5.195312 11.492188 -5.230469 11.5625 -5.300781 C 11.632812 -5.359375 11.671875 -5.4375 11.679688 -5.535156 C 11.6875 -5.628906 11.664062 -5.710938 11.601562 -5.78125 C 11.53125 -5.851562 11.4375 -5.886719 11.316406 -5.886719 C 10.109375 -5.953125 9.09375 -6.265625 8.269531 -6.824219 C 7.453125 -7.371094 7.042969 -8.015625 7.042969 -8.761719 L 7.042969 -9.21875 L 10.886719 -9.21875 C 11.101562 -9.21875 11.210938 -9.332031 11.210938 -9.558594 C 11.210938 -9.773438 11.101562 -9.882812 10.886719 -9.882812 M 11.746094 -3.878906 L 1.613281 -3.878906 C 1.371094 -3.878906 1.246094 -3.773438 1.238281 -3.554688 C 1.226562 -3.328125 1.335938 -3.214844 1.5625 -3.214844 L 6.289062 -3.214844 L 6.289062 0.273438 C 6.289062 0.394531 6.328125 0.496094 6.40625 0.574219 C 6.476562 0.632812 6.5625 0.664062 6.667969 0.664062 C 6.761719 0.664062 6.84375 0.628906 6.914062 0.558594 C 7 0.480469 7.042969 0.382812 7.042969 0.261719 L 7.042969 -3.214844 L 11.769531 -3.214844 C 11.996094 -3.214844 12.109375 -3.328125 12.109375 -3.554688 C 12.101562 -3.773438 11.980469 -3.878906 11.746094 -3.878906 Z "/>
</g>
<g id="glyph-1-5">
<path d="M 5.792969 -9.832031 L 1.941406 -9.832031 C 1.695312 -9.832031 1.578125 -9.722656 1.589844 -9.503906 C 1.589844 -9.28125 1.710938 -9.167969 1.953125 -9.167969 L 5.820312 -9.167969 C 6.019531 -9.167969 6.175781 -9.117188 6.289062 -9.023438 C 6.394531 -8.929688 6.445312 -8.789062 6.445312 -8.605469 L 6.445312 -7.082031 C 6.445312 -5.25 6.011719 -3.832031 5.144531 -2.824219 C 4.34375 -1.898438 3.199219 -1.355469 1.707031 -1.199219 C 1.460938 -1.179688 1.351562 -1.0625 1.367188 -0.847656 C 1.382812 -0.621094 1.515625 -0.515625 1.757812 -0.535156 C 3.355469 -0.636719 4.640625 -1.234375 5.613281 -2.316406 C 6.664062 -3.480469 7.1875 -5.0625 7.1875 -7.058594 L 7.1875 -8.59375 C 7.1875 -8.976562 7.066406 -9.273438 6.824219 -9.492188 C 6.570312 -9.71875 6.226562 -9.832031 5.792969 -9.832031 M 10.46875 -5.105469 L 10.46875 -9.871094 C 10.46875 -9.984375 10.425781 -10.074219 10.339844 -10.144531 C 10.269531 -10.195312 10.183594 -10.222656 10.078125 -10.222656 C 9.972656 -10.222656 9.886719 -10.195312 9.816406 -10.144531 C 9.738281 -10.074219 9.699219 -9.984375 9.699219 -9.871094 L 9.699219 0.285156 C 9.699219 0.398438 9.738281 0.492188 9.816406 0.558594 C 9.886719 0.628906 9.972656 0.664062 10.078125 0.664062 C 10.183594 0.664062 10.269531 0.628906 10.339844 0.558594 C 10.425781 0.492188 10.46875 0.398438 10.46875 0.285156 L 10.46875 -4.464844 L 11.914062 -4.464844 C 12.121094 -4.464844 12.226562 -4.574219 12.226562 -4.792969 C 12.226562 -5 12.121094 -5.105469 11.914062 -5.105469 Z "/>
</g>
<g id="glyph-1-6">
<path d="M 6.679688 -6.328125 C 6.730469 -6.796875 6.769531 -7.367188 6.796875 -8.035156 C 6.832031 -8.605469 6.847656 -9.125 6.847656 -9.582031 C 6.847656 -9.703125 6.804688 -9.800781 6.71875 -9.871094 C 6.648438 -9.9375 6.566406 -9.972656 6.472656 -9.972656 C 6.367188 -9.972656 6.28125 -9.9375 6.210938 -9.871094 C 6.132812 -9.800781 6.09375 -9.703125 6.09375 -9.582031 C 6.09375 -7.933594 6.011719 -6.5625 5.847656 -5.46875 C 5.726562 -4.574219 5.515625 -3.699219 5.222656 -2.839844 C 5.054688 -3.386719 4.851562 -3.941406 4.609375 -4.503906 C 4.417969 -4.929688 4.117188 -5.542969 3.710938 -6.339844 C 3.753906 -6.828125 3.792969 -7.390625 3.828125 -8.035156 C 3.855469 -8.617188 3.867188 -9.132812 3.867188 -9.582031 C 3.867188 -9.703125 3.824219 -9.800781 3.738281 -9.871094 C 3.667969 -9.929688 3.582031 -9.960938 3.476562 -9.960938 C 3.363281 -9.960938 3.273438 -9.929688 3.203125 -9.871094 C 3.125 -9.800781 3.085938 -9.703125 3.085938 -9.582031 C 3.085938 -7.378906 2.957031 -5.710938 2.695312 -4.582031 C 2.476562 -3.609375 2.023438 -2.503906 1.328125 -1.261719 C 1.25 -1.140625 1.222656 -1.03125 1.25 -0.9375 C 1.277344 -0.84375 1.332031 -0.773438 1.417969 -0.730469 C 1.496094 -0.6875 1.585938 -0.671875 1.679688 -0.691406 C 1.785156 -0.714844 1.867188 -0.777344 1.925781 -0.871094 C 2.300781 -1.496094 2.632812 -2.199219 2.929688 -2.980469 C 3.25 -3.824219 3.453125 -4.566406 3.542969 -5.207031 C 3.777344 -4.730469 4.019531 -4.171875 4.269531 -3.527344 C 4.523438 -2.867188 4.710938 -2.308594 4.832031 -1.847656 C 4.777344 -1.726562 4.71875 -1.59375 4.648438 -1.445312 C 4.597656 -1.359375 4.527344 -1.242188 4.441406 -1.09375 L 4.386719 -0.988281 C 4.308594 -0.867188 4.285156 -0.746094 4.308594 -0.625 C 4.335938 -0.519531 4.390625 -0.441406 4.480469 -0.390625 C 4.566406 -0.328125 4.65625 -0.308594 4.753906 -0.324219 C 4.855469 -0.351562 4.945312 -0.417969 5.011719 -0.519531 C 5.351562 -1.109375 5.671875 -1.851562 5.976562 -2.746094 C 6.261719 -3.625 6.445312 -4.378906 6.523438 -5.011719 C 6.792969 -4.484375 7.058594 -3.824219 7.316406 -3.035156 C 7.605469 -2.183594 7.804688 -1.414062 7.917969 -0.730469 C 7.933594 -0.617188 7.984375 -0.535156 8.074219 -0.480469 C 8.152344 -0.429688 8.242188 -0.417969 8.347656 -0.441406 C 8.449219 -0.460938 8.527344 -0.507812 8.582031 -0.585938 C 8.648438 -0.671875 8.675781 -0.773438 8.660156 -0.886719 C 8.503906 -1.683594 8.277344 -2.5 7.980469 -3.332031 C 7.644531 -4.28125 7.210938 -5.277344 6.679688 -6.328125 M 10.46875 -5.105469 L 10.46875 -9.871094 C 10.46875 -9.984375 10.425781 -10.074219 10.339844 -10.144531 C 10.269531 -10.195312 10.183594 -10.222656 10.078125 -10.222656 C 9.972656 -10.222656 9.886719 -10.195312 9.816406 -10.144531 C 9.738281 -10.074219 9.699219 -9.984375 9.699219 -9.871094 L 9.699219 0.285156 C 9.699219 0.398438 9.738281 0.492188 9.816406 0.558594 C 9.886719 0.628906 9.972656 0.664062 10.078125 0.664062 C 10.183594 0.664062 10.269531 0.628906 10.339844 0.558594 C 10.425781 0.492188 10.46875 0.398438 10.46875 0.285156 L 10.46875 -4.464844 L 11.914062 -4.464844 C 12.121094 -4.464844 12.226562 -4.574219 12.226562 -4.792969 C 12.226562 -5 12.121094 -5.105469 11.914062 -5.105469 Z "/>
</g>
<g id="glyph-1-7">
<path d="M 7.199219 -9.832031 L 3.125 -9.832031 C 2.71875 -9.832031 2.390625 -9.714844 2.148438 -9.480469 C 1.921875 -9.253906 1.808594 -8.949219 1.808594 -8.566406 L 1.808594 -1.835938 C 1.808594 -1.382812 1.9375 -1.039062 2.1875 -0.792969 C 2.429688 -0.558594 2.789062 -0.441406 3.269531 -0.441406 C 4.328125 -0.441406 5.3125 -0.523438 6.222656 -0.691406 C 7.238281 -0.871094 8.09375 -1.144531 8.789062 -1.511719 C 8.902344 -1.578125 8.976562 -1.667969 9.011719 -1.769531 C 9.054688 -1.875 9.054688 -1.96875 9.011719 -2.058594 C 8.976562 -2.152344 8.914062 -2.214844 8.828125 -2.238281 C 8.734375 -2.273438 8.628906 -2.257812 8.515625 -2.1875 C 7.882812 -1.859375 7.101562 -1.59375 6.171875 -1.394531 C 5.25 -1.203125 4.292969 -1.105469 3.292969 -1.105469 C 3.050781 -1.105469 2.875 -1.164062 2.761719 -1.277344 C 2.640625 -1.398438 2.578125 -1.585938 2.578125 -1.835938 L 2.578125 -8.527344 C 2.578125 -8.761719 2.617188 -8.929688 2.695312 -9.023438 C 2.78125 -9.117188 2.933594 -9.167969 3.152344 -9.167969 L 7.1875 -9.167969 C 7.4375 -9.167969 7.570312 -9.28125 7.578125 -9.503906 C 7.578125 -9.722656 7.453125 -9.832031 7.199219 -9.832031 M 10.46875 -5.105469 L 10.46875 -9.871094 C 10.46875 -9.984375 10.425781 -10.074219 10.339844 -10.144531 C 10.269531 -10.195312 10.183594 -10.222656 10.078125 -10.222656 C 9.972656 -10.222656 9.886719 -10.195312 9.816406 -10.144531 C 9.738281 -10.074219 9.699219 -9.984375 9.699219 -9.871094 L 9.699219 0.285156 C 9.699219 0.398438 9.738281 0.492188 9.816406 0.558594 C 9.886719 0.628906 9.972656 0.664062 10.078125 0.664062 C 10.183594 0.664062 10.269531 0.628906 10.339844 0.558594 C 10.425781 0.492188 10.46875 0.398438 10.46875 0.285156 L 10.46875 -4.464844 L 11.914062 -4.464844 C 12.121094 -4.464844 12.226562 -4.574219 12.226562 -4.792969 C 12.226562 -5 12.121094 -5.105469 11.914062 -5.105469 Z "/>
</g>
<g id="glyph-1-8">
<path d="M 6.574219 -5.78125 L 6.574219 -1.628906 C 6.574219 -1.445312 6.519531 -1.316406 6.40625 -1.238281 C 6.300781 -1.148438 6.148438 -1.105469 5.949219 -1.105469 L 3.113281 -1.105469 C 2.921875 -1.105469 2.785156 -1.144531 2.707031 -1.222656 C 2.621094 -1.300781 2.578125 -1.4375 2.578125 -1.628906 L 2.578125 -5.78125 L 6.574219 -5.78125 M 6.574219 -9.542969 L 6.574219 -6.445312 L 2.578125 -6.445312 L 2.578125 -9.480469 C 2.578125 -9.617188 2.535156 -9.726562 2.449219 -9.804688 C 2.378906 -9.875 2.292969 -9.910156 2.1875 -9.910156 C 2.082031 -9.910156 1.996094 -9.871094 1.925781 -9.792969 C 1.847656 -9.714844 1.808594 -9.605469 1.808594 -9.464844 L 1.808594 -1.496094 C 1.808594 -1.183594 1.90625 -0.933594 2.097656 -0.742188 C 2.296875 -0.542969 2.554688 -0.441406 2.878906 -0.441406 L 6.25 -0.441406 C 6.570312 -0.441406 6.832031 -0.542969 7.03125 -0.742188 C 7.222656 -0.933594 7.316406 -1.179688 7.316406 -1.484375 L 7.316406 -9.53125 C 7.316406 -9.78125 7.191406 -9.910156 6.941406 -9.910156 C 6.695312 -9.910156 6.574219 -9.789062 6.574219 -9.542969 M 10.859375 0.261719 L 10.859375 -9.871094 C 10.859375 -9.984375 10.816406 -10.074219 10.730469 -10.144531 C 10.660156 -10.195312 10.574219 -10.222656 10.46875 -10.222656 C 10.355469 -10.222656 10.265625 -10.195312 10.195312 -10.144531 C 10.117188 -10.074219 10.078125 -9.984375 10.078125 -9.871094 L 10.078125 0.261719 C 10.078125 0.382812 10.117188 0.480469 10.195312 0.558594 C 10.265625 0.628906 10.355469 0.664062 10.46875 0.664062 C 10.574219 0.664062 10.660156 0.628906 10.730469 0.558594 C 10.816406 0.480469 10.859375 0.382812 10.859375 0.261719 Z "/>
</g>
<g id="glyph-1-9">
<path d="M 8.085938 -9.921875 L 2.175781 -9.921875 C 1.929688 -9.921875 1.808594 -9.8125 1.808594 -9.597656 C 1.800781 -9.371094 1.917969 -9.257812 2.160156 -9.257812 L 4.738281 -9.257812 L 4.738281 -8.828125 C 4.738281 -7.917969 4.441406 -7.136719 3.839844 -6.484375 C 3.347656 -5.945312 2.632812 -5.484375 1.707031 -5.105469 C 1.59375 -5.0625 1.519531 -4.992188 1.484375 -4.894531 C 1.457031 -4.808594 1.46875 -4.722656 1.511719 -4.636719 C 1.5625 -4.539062 1.632812 -4.476562 1.71875 -4.441406 C 1.8125 -4.398438 1.917969 -4.390625 2.03125 -4.425781 C 2.8125 -4.730469 3.476562 -5.132812 4.023438 -5.636719 C 4.554688 -6.140625 4.917969 -6.683594 5.117188 -7.265625 C 5.265625 -6.753906 5.636719 -6.238281 6.238281 -5.714844 C 6.792969 -5.238281 7.425781 -4.847656 8.136719 -4.542969 C 8.257812 -4.492188 8.375 -4.484375 8.488281 -4.519531 C 8.59375 -4.554688 8.671875 -4.617188 8.722656 -4.714844 C 8.765625 -4.808594 8.777344 -4.90625 8.75 -5 C 8.714844 -5.09375 8.640625 -5.164062 8.527344 -5.207031 C 7.660156 -5.554688 6.976562 -5.988281 6.472656 -6.511719 C 5.828125 -7.171875 5.507812 -7.953125 5.507812 -8.855469 L 5.507812 -9.257812 L 8.085938 -9.257812 C 8.304688 -9.257812 8.410156 -9.371094 8.410156 -9.597656 C 8.410156 -9.8125 8.304688 -9.921875 8.085938 -9.921875 M 10.46875 -7.082031 L 10.46875 -9.871094 C 10.46875 -10.105469 10.339844 -10.222656 10.078125 -10.222656 C 9.828125 -10.222656 9.699219 -10.105469 9.699219 -9.871094 L 9.699219 -4.660156 C 9.699219 -4.539062 9.738281 -4.445312 9.816406 -4.375 C 9.886719 -4.304688 9.972656 -4.269531 10.078125 -4.269531 C 10.183594 -4.269531 10.269531 -4.304688 10.339844 -4.375 C 10.425781 -4.445312 10.46875 -4.539062 10.46875 -4.660156 L 10.46875 -6.417969 L 11.886719 -6.417969 C 12.113281 -6.417969 12.226562 -6.53125 12.226562 -6.757812 C 12.226562 -6.976562 12.113281 -7.082031 11.886719 -7.082031 L 10.46875 -7.082031 M 9.183594 -3.191406 L 2.472656 -3.191406 C 2.230469 -3.191406 2.113281 -3.078125 2.121094 -2.851562 C 2.121094 -2.625 2.238281 -2.511719 2.472656 -2.511719 L 9.179688 -2.511719 C 9.363281 -2.511719 9.496094 -2.472656 9.582031 -2.394531 C 9.660156 -2.328125 9.699219 -2.210938 9.699219 -2.042969 L 9.699219 0.273438 C 9.699219 0.394531 9.738281 0.496094 9.816406 0.574219 C 9.886719 0.632812 9.972656 0.664062 10.078125 0.664062 C 10.183594 0.664062 10.269531 0.632812 10.339844 0.574219 C 10.425781 0.496094 10.46875 0.394531 10.46875 0.273438 L 10.46875 -2.042969 C 10.46875 -2.410156 10.359375 -2.691406 10.144531 -2.890625 C 9.917969 -3.089844 9.597656 -3.191406 9.183594 -3.191406 Z "/>
</g>
<g id="glyph-1-10">
<path d="M 3.527344 -6.367188 L 10.898438 -6.367188 C 11.117188 -6.367188 11.21875 -6.480469 11.210938 -6.707031 C 11.210938 -6.929688 11.097656 -7.042969 10.871094 -7.042969 L 3.566406 -7.042969 C 3.375 -7.042969 3.242188 -7.082031 3.164062 -7.160156 C 3.085938 -7.230469 3.046875 -7.347656 3.046875 -7.511719 L 3.046875 -8.917969 C 3.046875 -9.066406 3.089844 -9.175781 3.175781 -9.246094 C 3.265625 -9.3125 3.398438 -9.347656 3.582031 -9.347656 L 10.769531 -9.347656 C 10.863281 -9.347656 10.9375 -9.386719 10.988281 -9.464844 C 11.042969 -9.527344 11.066406 -9.601562 11.066406 -9.6875 C 11.058594 -9.78125 11.023438 -9.859375 10.964844 -9.921875 C 10.902344 -9.992188 10.816406 -10.027344 10.703125 -10.027344 L 3.449219 -10.027344 C 3.085938 -10.027344 2.796875 -9.929688 2.578125 -9.738281 C 2.371094 -9.539062 2.265625 -9.285156 2.265625 -8.972656 L 2.265625 -7.472656 C 2.265625 -7.136719 2.375 -6.867188 2.589844 -6.667969 C 2.816406 -6.46875 3.128906 -6.367188 3.527344 -6.367188 M 11.71875 -4.699219 L 7.03125 -4.699219 L 7.03125 -6.132812 C 7.03125 -6.359375 6.90625 -6.46875 6.652344 -6.457031 C 6.402344 -6.457031 6.277344 -6.339844 6.277344 -6.105469 L 6.277344 -4.699219 L 1.613281 -4.699219 C 1.492188 -4.699219 1.398438 -4.671875 1.328125 -4.609375 C 1.265625 -4.539062 1.234375 -4.460938 1.222656 -4.375 C 1.214844 -4.289062 1.238281 -4.210938 1.289062 -4.140625 C 1.339844 -4.070312 1.414062 -4.035156 1.511719 -4.035156 L 11.730469 -4.035156 C 11.84375 -4.035156 11.9375 -4.070312 12.003906 -4.140625 C 12.074219 -4.210938 12.109375 -4.289062 12.109375 -4.375 C 12.109375 -4.460938 12.074219 -4.539062 12.003906 -4.609375 C 11.9375 -4.671875 11.839844 -4.699219 11.71875 -4.699219 M 6.667969 -3.125 C 5.121094 -3.125 3.957031 -2.941406 3.175781 -2.578125 C 2.472656 -2.25 2.121094 -1.792969 2.121094 -1.210938 C 2.121094 -0.636719 2.472656 -0.1875 3.175781 0.144531 C 3.957031 0.507812 5.121094 0.691406 6.667969 0.691406 C 8.203125 0.691406 9.363281 0.507812 10.144531 0.144531 C 10.855469 -0.1875 11.210938 -0.636719 11.210938 -1.210938 C 11.210938 -1.800781 10.855469 -2.257812 10.144531 -2.578125 C 9.371094 -2.941406 8.210938 -3.125 6.667969 -3.125 M 6.667969 -2.472656 C 7.976562 -2.472656 8.949219 -2.359375 9.582031 -2.136719 C 10.164062 -1.925781 10.457031 -1.617188 10.457031 -1.210938 C 10.457031 -0.820312 10.164062 -0.523438 9.582031 -0.324219 C 8.949219 -0.0898438 7.976562 0.0273438 6.667969 0.0273438 C 5.347656 0.0273438 4.371094 -0.0898438 3.738281 -0.324219 C 3.164062 -0.523438 2.878906 -0.820312 2.878906 -1.210938 C 2.878906 -1.617188 3.164062 -1.925781 3.738281 -2.136719 C 4.371094 -2.359375 5.347656 -2.472656 6.667969 -2.472656 Z "/>
</g>
<g id="glyph-1-11">
<path d="M 5.222656 -9.972656 C 4.109375 -9.972656 3.246094 -9.777344 2.628906 -9.386719 C 2.082031 -9.039062 1.808594 -8.601562 1.808594 -8.074219 C 1.808594 -7.550781 2.082031 -7.117188 2.628906 -6.769531 C 3.246094 -6.378906 4.109375 -6.183594 5.222656 -6.183594 C 6.324219 -6.183594 7.183594 -6.378906 7.800781 -6.769531 C 8.355469 -7.117188 8.632812 -7.550781 8.632812 -8.074219 C 8.632812 -8.601562 8.355469 -9.039062 7.800781 -9.386719 C 7.183594 -9.777344 6.324219 -9.972656 5.222656 -9.972656 M 5.222656 -9.308594 C 6.097656 -9.308594 6.769531 -9.183594 7.238281 -8.933594 C 7.65625 -8.707031 7.863281 -8.421875 7.863281 -8.074219 C 7.863281 -7.734375 7.65625 -7.453125 7.238281 -7.226562 C 6.769531 -6.976562 6.097656 -6.847656 5.222656 -6.847656 C 4.335938 -6.847656 3.660156 -6.976562 3.191406 -7.226562 C 2.78125 -7.453125 2.578125 -7.734375 2.578125 -8.074219 C 2.578125 -8.421875 2.78125 -8.707031 3.191406 -8.933594 C 3.660156 -9.183594 4.335938 -9.308594 5.222656 -9.308594 M 4.777344 -4.675781 L 4.777344 -4.101562 C 4.777344 -3.867188 4.753906 -3.65625 4.699219 -3.464844 C 4.648438 -3.273438 4.582031 -3.109375 4.503906 -2.96875 C 4.359375 -2.777344 4.371094 -2.617188 4.542969 -2.488281 C 4.71875 -2.347656 4.882812 -2.367188 5.039062 -2.539062 C 5.1875 -2.722656 5.308594 -2.960938 5.402344 -3.253906 C 5.507812 -3.558594 5.558594 -3.871094 5.558594 -4.191406 L 5.558594 -4.714844 L 8.761719 -4.804688 C 8.867188 -4.8125 8.953125 -4.855469 9.023438 -4.933594 C 9.074219 -4.996094 9.101562 -5.070312 9.101562 -5.15625 C 9.09375 -5.25 9.054688 -5.324219 8.984375 -5.378906 C 8.90625 -5.4375 8.804688 -5.460938 8.683594 -5.441406 C 7.878906 -5.398438 6.746094 -5.359375 5.285156 -5.324219 C 3.921875 -5.289062 2.644531 -5.273438 1.445312 -5.273438 C 1.21875 -5.273438 1.101562 -5.167969 1.09375 -4.960938 C 1.085938 -4.742188 1.1875 -4.636719 1.40625 -4.636719 L 4.777344 -4.675781 M 10.859375 -2.5 L 10.859375 -9.871094 C 10.859375 -9.984375 10.816406 -10.070312 10.730469 -10.128906 C 10.660156 -10.191406 10.574219 -10.222656 10.46875 -10.222656 C 10.355469 -10.222656 10.265625 -10.191406 10.195312 -10.128906 C 10.117188 -10.0625 10.078125 -9.96875 10.078125 -9.859375 L 10.078125 -4.152344 L 7.5 -4.152344 C 7.378906 -4.152344 7.28125 -4.125 7.214844 -4.0625 C 7.152344 -4 7.125 -3.921875 7.136719 -3.828125 C 7.136719 -3.742188 7.175781 -3.667969 7.253906 -3.605469 C 7.332031 -3.539062 7.4375 -3.503906 7.578125 -3.503906 L 10.078125 -3.503906 L 10.078125 -2.5 C 10.078125 -2.378906 10.117188 -2.277344 10.195312 -2.199219 C 10.265625 -2.140625 10.355469 -2.109375 10.46875 -2.109375 C 10.574219 -2.109375 10.660156 -2.140625 10.730469 -2.199219 C 10.816406 -2.277344 10.859375 -2.378906 10.859375 -2.5 M 3.253906 -2.449219 C 3.253906 -2.570312 3.210938 -2.664062 3.125 -2.734375 C 3.054688 -2.804688 2.96875 -2.839844 2.863281 -2.839844 C 2.75 -2.839844 2.660156 -2.804688 2.589844 -2.734375 C 2.511719 -2.664062 2.472656 -2.570312 2.472656 -2.449219 L 2.472656 -0.808594 C 2.472656 -0.46875 2.589844 -0.191406 2.824219 0.0273438 C 3.058594 0.242188 3.355469 0.351562 3.710938 0.351562 L 10.949219 0.351562 C 11.175781 0.351562 11.289062 0.238281 11.289062 0.0117188 C 11.289062 -0.203125 11.175781 -0.3125 10.949219 -0.3125 L 3.894531 -0.3125 C 3.640625 -0.3125 3.472656 -0.351562 3.386719 -0.429688 C 3.296875 -0.515625 3.253906 -0.675781 3.253906 -0.910156 Z "/>
</g>
<g id="glyph-1-12">
<path d="M 5.886719 -9.84375 L 2.160156 -9.84375 C 1.882812 -9.84375 1.746094 -9.734375 1.746094 -9.519531 C 1.734375 -9.300781 1.867188 -9.191406 2.136719 -9.191406 L 5.636719 -9.191406 C 5.898438 -9.191406 6.089844 -9.152344 6.210938 -9.074219 C 6.332031 -8.988281 6.394531 -8.859375 6.394531 -8.683594 L 6.394531 -6.457031 C 6.394531 -6.265625 6.351562 -6.140625 6.261719 -6.082031 C 6.183594 -6.011719 6.039062 -5.976562 5.820312 -5.976562 L 3.019531 -5.976562 C 2.640625 -5.976562 2.339844 -5.863281 2.121094 -5.636719 C 1.914062 -5.421875 1.808594 -5.132812 1.808594 -4.777344 L 1.808594 -1.707031 C 1.808594 -1.316406 1.910156 -1.007812 2.109375 -0.78125 C 2.328125 -0.539062 2.652344 -0.417969 3.085938 -0.417969 C 4.128906 -0.417969 5.125 -0.496094 6.082031 -0.652344 C 7.15625 -0.816406 8.054688 -1.058594 8.777344 -1.378906 C 8.992188 -1.492188 9.054688 -1.65625 8.957031 -1.875 C 8.871094 -2.09375 8.714844 -2.140625 8.488281 -2.019531 C 7.855469 -1.730469 7.085938 -1.507812 6.183594 -1.339844 C 5.246094 -1.167969 4.28125 -1.082031 3.28125 -1.082031 C 3.019531 -1.082031 2.839844 -1.136719 2.734375 -1.25 C 2.628906 -1.34375 2.578125 -1.515625 2.578125 -1.757812 L 2.578125 -4.675781 C 2.578125 -4.898438 2.617188 -5.0625 2.695312 -5.15625 C 2.78125 -5.25 2.933594 -5.300781 3.152344 -5.300781 L 5.925781 -5.300781 C 6.332031 -5.300781 6.636719 -5.390625 6.835938 -5.574219 C 7.035156 -5.746094 7.136719 -6 7.136719 -6.328125 L 7.136719 -8.855469 C 7.136719 -9.175781 7.023438 -9.421875 6.796875 -9.597656 C 6.570312 -9.761719 6.265625 -9.84375 5.886719 -9.84375 M 10.859375 0.261719 L 10.859375 -9.871094 C 10.859375 -9.984375 10.816406 -10.074219 10.730469 -10.144531 C 10.660156 -10.195312 10.574219 -10.222656 10.46875 -10.222656 C 10.355469 -10.222656 10.265625 -10.195312 10.195312 -10.144531 C 10.117188 -10.074219 10.078125 -9.984375 10.078125 -9.871094 L 10.078125 0.261719 C 10.078125 0.382812 10.117188 0.480469 10.195312 0.558594 C 10.265625 0.628906 10.355469 0.664062 10.46875 0.664062 C 10.574219 0.664062 10.660156 0.628906 10.730469 0.558594 C 10.816406 0.480469 10.859375 0.382812 10.859375 0.261719 Z "/>
</g>
<g id="glyph-1-13">
<path d="M 4.324219 -9.636719 C 4.324219 -8.90625 4.101562 -8.097656 3.660156 -7.214844 C 3.121094 -6.136719 2.394531 -5.285156 1.484375 -4.660156 C 1.363281 -4.582031 1.292969 -4.492188 1.277344 -4.386719 C 1.257812 -4.285156 1.28125 -4.191406 1.339844 -4.113281 C 1.394531 -4.027344 1.46875 -3.980469 1.5625 -3.972656 C 1.667969 -3.953125 1.769531 -3.980469 1.875 -4.050781 C 2.535156 -4.5625 3.074219 -5.078125 3.488281 -5.597656 C 3.855469 -6.050781 4.207031 -6.628906 4.542969 -7.332031 C 5.152344 -6.878906 5.679688 -6.429688 6.132812 -5.976562 C 6.601562 -5.507812 7.042969 -4.992188 7.460938 -4.425781 C 7.539062 -4.324219 7.632812 -4.261719 7.746094 -4.246094 C 7.84375 -4.226562 7.933594 -4.25 8.019531 -4.308594 C 8.097656 -4.371094 8.148438 -4.449219 8.164062 -4.542969 C 8.171875 -4.65625 8.136719 -4.769531 8.058594 -4.882812 C 7.574219 -5.515625 7.105469 -6.050781 6.652344 -6.484375 C 6.167969 -6.945312 5.542969 -7.449219 4.777344 -7.996094 C 4.875 -8.289062 4.945312 -8.546875 4.988281 -8.761719 C 5.054688 -9.066406 5.089844 -9.359375 5.089844 -9.636719 C 5.089844 -9.765625 5.046875 -9.867188 4.960938 -9.933594 C 4.890625 -9.996094 4.804688 -10.027344 4.699219 -10.027344 C 4.597656 -10.027344 4.507812 -9.996094 4.441406 -9.933594 C 4.363281 -9.867188 4.324219 -9.765625 4.324219 -9.636719 M 10.859375 -4.6875 L 10.859375 -9.871094 C 10.859375 -9.984375 10.816406 -10.070312 10.730469 -10.128906 C 10.660156 -10.191406 10.574219 -10.222656 10.46875 -10.222656 C 10.355469 -10.222656 10.265625 -10.191406 10.195312 -10.128906 C 10.117188 -10.0625 10.078125 -9.96875 10.078125 -9.859375 L 10.078125 -4.6875 C 10.078125 -4.566406 10.117188 -4.464844 10.195312 -4.386719 C 10.265625 -4.320312 10.355469 -4.285156 10.46875 -4.285156 C 10.574219 -4.285156 10.660156 -4.320312 10.730469 -4.386719 C 10.816406 -4.464844 10.859375 -4.566406 10.859375 -4.6875 M 10.078125 -2.277344 L 10.078125 -0.730469 C 10.078125 -0.582031 10.03125 -0.472656 9.933594 -0.402344 C 9.847656 -0.34375 9.703125 -0.3125 9.503906 -0.3125 L 3.867188 -0.3125 C 3.640625 -0.3125 3.484375 -0.347656 3.398438 -0.417969 C 3.320312 -0.484375 3.28125 -0.609375 3.28125 -0.78125 L 3.28125 -2.253906 C 3.28125 -2.417969 3.316406 -2.535156 3.386719 -2.605469 C 3.472656 -2.683594 3.621094 -2.722656 3.828125 -2.722656 L 9.492188 -2.722656 C 9.699219 -2.722656 9.847656 -2.691406 9.933594 -2.628906 C 10.03125 -2.5625 10.078125 -2.445312 10.078125 -2.277344 M 9.675781 -3.386719 L 3.554688 -3.386719 C 3.234375 -3.386719 2.976562 -3.292969 2.785156 -3.113281 C 2.59375 -2.929688 2.5 -2.699219 2.5 -2.421875 L 2.5 -0.714844 C 2.5 -0.367188 2.589844 -0.109375 2.773438 0.0664062 C 2.972656 0.257812 3.289062 0.351562 3.722656 0.351562 L 9.726562 0.351562 C 10.074219 0.351562 10.347656 0.269531 10.546875 0.105469 C 10.753906 -0.0703125 10.859375 -0.320312 10.859375 -0.652344 L 10.859375 -2.472656 C 10.859375 -2.75 10.753906 -2.972656 10.546875 -3.136719 C 10.328125 -3.304688 10.039062 -3.386719 9.675781 -3.386719 Z "/>
</g>
<g id="glyph-1-14">
<path d="M 8.582031 -10.195312 L 4.738281 -10.195312 C 4.488281 -10.195312 4.363281 -10.085938 4.363281 -9.871094 C 4.363281 -9.644531 4.488281 -9.53125 4.738281 -9.53125 L 8.632812 -9.53125 C 8.738281 -9.53125 8.820312 -9.566406 8.878906 -9.636719 C 8.941406 -9.703125 8.96875 -9.78125 8.957031 -9.871094 C 8.957031 -9.957031 8.929688 -10.035156 8.867188 -10.105469 C 8.789062 -10.164062 8.695312 -10.195312 8.582031 -10.195312 M 10.886719 -8.777344 L 2.488281 -8.777344 C 2.242188 -8.777344 2.121094 -8.664062 2.121094 -8.4375 C 2.113281 -8.210938 2.230469 -8.097656 2.472656 -8.097656 L 6.289062 -8.097656 C 6.183594 -7.613281 5.734375 -7.222656 4.933594 -6.925781 C 4.195312 -6.65625 3.242188 -6.492188 2.070312 -6.433594 C 1.921875 -6.433594 1.8125 -6.390625 1.746094 -6.300781 C 1.683594 -6.234375 1.667969 -6.144531 1.691406 -6.042969 C 1.710938 -5.945312 1.757812 -5.863281 1.835938 -5.792969 C 1.929688 -5.726562 2.046875 -5.695312 2.1875 -5.703125 C 3.289062 -5.773438 4.234375 -5.945312 5.027344 -6.222656 C 5.808594 -6.492188 6.355469 -6.835938 6.667969 -7.253906 C 6.996094 -6.851562 7.542969 -6.515625 8.308594 -6.238281 C 9.125 -5.941406 10.082031 -5.765625 11.183594 -5.703125 C 11.445312 -5.6875 11.597656 -5.792969 11.640625 -6.027344 C 11.683594 -6.253906 11.574219 -6.378906 11.316406 -6.40625 C 10.089844 -6.492188 9.117188 -6.671875 8.398438 -6.941406 C 7.601562 -7.226562 7.148438 -7.613281 7.042969 -8.097656 L 10.886719 -8.097656 C 11.101562 -8.097656 11.210938 -8.210938 11.210938 -8.4375 C 11.210938 -8.664062 11.101562 -8.777344 10.886719 -8.777344 M 11.71875 -4.699219 L 1.613281 -4.699219 C 1.363281 -4.699219 1.234375 -4.59375 1.222656 -4.375 C 1.222656 -4.148438 1.34375 -4.035156 1.589844 -4.035156 L 11.769531 -4.035156 C 11.875 -4.035156 11.960938 -4.070312 12.03125 -4.140625 C 12.082031 -4.210938 12.109375 -4.289062 12.109375 -4.375 C 12.109375 -4.460938 12.074219 -4.539062 12.003906 -4.609375 C 11.9375 -4.671875 11.839844 -4.699219 11.71875 -4.699219 M 6.667969 -3.125 C 5.121094 -3.125 3.957031 -2.941406 3.175781 -2.578125 C 2.472656 -2.25 2.121094 -1.792969 2.121094 -1.210938 C 2.121094 -0.636719 2.472656 -0.1875 3.175781 0.144531 C 3.957031 0.507812 5.121094 0.691406 6.667969 0.691406 C 8.203125 0.691406 9.363281 0.507812 10.144531 0.144531 C 10.855469 -0.1875 11.210938 -0.636719 11.210938 -1.210938 C 11.210938 -1.800781 10.855469 -2.257812 10.144531 -2.578125 C 9.371094 -2.941406 8.210938 -3.125 6.667969 -3.125 M 6.667969 -2.472656 C 7.976562 -2.472656 8.949219 -2.359375 9.582031 -2.136719 C 10.164062 -1.925781 10.457031 -1.617188 10.457031 -1.210938 C 10.457031 -0.820312 10.164062 -0.523438 9.582031 -0.324219 C 8.949219 -0.0898438 7.976562 0.0273438 6.667969 0.0273438 C 5.347656 0.0273438 4.371094 -0.0898438 3.738281 -0.324219 C 3.164062 -0.523438 2.878906 -0.820312 2.878906 -1.210938 C 2.878906 -1.617188 3.164062 -1.925781 3.738281 -2.136719 C 4.371094 -2.359375 5.347656 -2.472656 6.667969 -2.472656 Z "/>
</g>
<g id="glyph-1-15">
<path d="M 10.285156 -8.242188 L 10.285156 -7.539062 C 10.285156 -7.355469 10.238281 -7.226562 10.144531 -7.148438 C 10.046875 -7.0625 9.894531 -7.019531 9.6875 -7.019531 L 3.59375 -7.019531 C 3.394531 -7.019531 3.25 -7.0625 3.164062 -7.148438 C 3.085938 -7.226562 3.046875 -7.351562 3.046875 -7.527344 L 3.046875 -8.242188 L 10.285156 -8.242188 M 3.503906 -6.355469 L 9.816406 -6.355469 C 10.226562 -6.355469 10.535156 -6.453125 10.742188 -6.652344 C 10.960938 -6.851562 11.066406 -7.140625 11.066406 -7.511719 L 11.066406 -9.738281 C 11.066406 -9.859375 11.023438 -9.957031 10.9375 -10.027344 C 10.867188 -10.09375 10.78125 -10.128906 10.675781 -10.128906 C 10.5625 -10.128906 10.472656 -10.09375 10.402344 -10.027344 C 10.324219 -9.957031 10.285156 -9.859375 10.285156 -9.738281 L 10.285156 -8.90625 L 3.046875 -8.90625 L 3.046875 -9.699219 C 3.046875 -9.832031 3.003906 -9.933594 2.917969 -10.011719 C 2.847656 -10.082031 2.761719 -10.117188 2.65625 -10.117188 C 2.542969 -10.117188 2.453125 -10.082031 2.382812 -10.011719 C 2.304688 -9.933594 2.265625 -9.832031 2.265625 -9.699219 L 2.265625 -7.421875 C 2.265625 -7.082031 2.375 -6.824219 2.589844 -6.640625 C 2.808594 -6.449219 3.113281 -6.355469 3.503906 -6.355469 M 11.757812 -4.910156 L 1.613281 -4.910156 C 1.363281 -4.910156 1.234375 -4.800781 1.222656 -4.582031 C 1.207031 -4.359375 1.316406 -4.246094 1.550781 -4.246094 L 6.289062 -4.246094 L 6.289062 -2.121094 C 6.289062 -2 6.328125 -1.90625 6.40625 -1.835938 C 6.476562 -1.773438 6.5625 -1.746094 6.667969 -1.746094 C 6.761719 -1.746094 6.84375 -1.78125 6.914062 -1.847656 C 7 -1.925781 7.042969 -2.03125 7.042969 -2.160156 L 7.042969 -4.246094 L 11.785156 -4.246094 C 12 -4.246094 12.109375 -4.359375 12.109375 -4.582031 C 12.101562 -4.800781 11.984375 -4.910156 11.757812 -4.910156 M 3.046875 -2.253906 C 3.046875 -2.410156 3.003906 -2.53125 2.917969 -2.617188 C 2.847656 -2.695312 2.761719 -2.734375 2.65625 -2.734375 C 2.542969 -2.734375 2.453125 -2.695312 2.382812 -2.617188 C 2.304688 -2.53125 2.265625 -2.410156 2.265625 -2.253906 L 2.265625 -0.792969 C 2.265625 -0.457031 2.367188 -0.183594 2.566406 0.0273438 C 2.765625 0.242188 3.039062 0.351562 3.386719 0.351562 L 10.871094 0.351562 C 11.097656 0.351562 11.210938 0.238281 11.210938 0.0117188 C 11.210938 -0.203125 11.097656 -0.3125 10.871094 -0.3125 L 3.671875 -0.3125 C 3.429688 -0.3125 3.265625 -0.351562 3.175781 -0.429688 C 3.089844 -0.515625 3.046875 -0.675781 3.046875 -0.910156 Z "/>
</g>
<g id="glyph-1-16">
<path d="M 4.324219 -9.648438 C 4.324219 -8.867188 4.105469 -8.058594 3.671875 -7.226562 C 3.160156 -6.253906 2.414062 -5.378906 1.433594 -4.597656 C 1.3125 -4.507812 1.246094 -4.414062 1.238281 -4.308594 C 1.21875 -4.214844 1.246094 -4.132812 1.316406 -4.0625 C 1.375 -3.992188 1.453125 -3.957031 1.550781 -3.957031 C 1.664062 -3.949219 1.769531 -3.980469 1.875 -4.050781 C 2.464844 -4.5 2.980469 -4.996094 3.425781 -5.535156 C 3.796875 -5.992188 4.125 -6.488281 4.402344 -7.019531 C 4.949219 -6.6875 5.453125 -6.316406 5.910156 -5.898438 C 6.433594 -5.445312 6.941406 -4.910156 7.433594 -4.285156 C 7.511719 -4.179688 7.613281 -4.125 7.734375 -4.113281 C 7.839844 -4.105469 7.929688 -4.136719 8.007812 -4.207031 C 8.09375 -4.273438 8.136719 -4.363281 8.136719 -4.464844 C 8.148438 -4.578125 8.109375 -4.683594 8.019531 -4.777344 C 7.472656 -5.414062 6.949219 -5.941406 6.445312 -6.367188 C 5.941406 -6.800781 5.351562 -7.222656 4.675781 -7.628906 C 4.804688 -7.960938 4.910156 -8.304688 4.988281 -8.660156 C 5.074219 -9.015625 5.117188 -9.328125 5.117188 -9.597656 C 5.117188 -9.734375 5.074219 -9.84375 4.988281 -9.921875 C 4.910156 -9.992188 4.816406 -10.027344 4.714844 -10.027344 C 4.609375 -10.035156 4.519531 -10.003906 4.441406 -9.933594 C 4.363281 -9.867188 4.324219 -9.769531 4.324219 -9.648438 M 10.859375 -4.6875 L 10.859375 -9.871094 C 10.859375 -9.984375 10.816406 -10.070312 10.730469 -10.128906 C 10.660156 -10.191406 10.574219 -10.222656 10.46875 -10.222656 C 10.355469 -10.222656 10.265625 -10.191406 10.195312 -10.128906 C 10.117188 -10.0625 10.078125 -9.972656 10.078125 -9.859375 L 10.078125 -7.617188 L 6.757812 -7.617188 C 6.628906 -7.617188 6.527344 -7.585938 6.457031 -7.527344 C 6.398438 -7.457031 6.367188 -7.378906 6.367188 -7.292969 C 6.367188 -7.203125 6.402344 -7.125 6.472656 -7.058594 C 6.550781 -6.988281 6.652344 -6.953125 6.785156 -6.953125 L 10.078125 -6.953125 L 10.078125 -4.6875 C 10.078125 -4.566406 10.117188 -4.464844 10.195312 -4.386719 C 10.265625 -4.320312 10.355469 -4.285156 10.46875 -4.285156 C 10.574219 -4.285156 10.660156 -4.320312 10.730469 -4.386719 C 10.816406 -4.464844 10.859375 -4.566406 10.859375 -4.6875 M 9.609375 -2.980469 L 2.472656 -2.980469 C 2.230469 -2.980469 2.113281 -2.867188 2.121094 -2.644531 C 2.121094 -2.417969 2.238281 -2.304688 2.472656 -2.304688 L 9.542969 -2.304688 C 9.734375 -2.304688 9.875 -2.265625 9.960938 -2.1875 C 10.039062 -2.117188 10.078125 -2 10.078125 -1.835938 L 10.078125 0.273438 C 10.078125 0.394531 10.117188 0.496094 10.195312 0.574219 C 10.265625 0.632812 10.355469 0.664062 10.46875 0.664062 C 10.574219 0.664062 10.660156 0.632812 10.730469 0.574219 C 10.816406 0.496094 10.859375 0.394531 10.859375 0.273438 L 10.859375 -1.863281 C 10.859375 -2.210938 10.75 -2.484375 10.535156 -2.683594 C 10.316406 -2.882812 10.007812 -2.980469 9.609375 -2.980469 Z "/>
</g>
</g>
</defs>
<g fill="rgb(96.862745%, 85.098039%, 43.529412%)" fill-opacity="1">
<use xlink:href="#glyph-0-0" x="30" y="32.226562"/>
<use xlink:href="#glyph-0-1" x="38" y="32.226562"/>
<use xlink:href="#glyph-0-2" x="47" y="32.226562"/>
</g>
<g fill="rgb(96.862745%, 85.098039%, 43.529412%)" fill-opacity="1">
<use xlink:href="#glyph-1-0" x="56" y="32.226562"/>
<use xlink:href="#glyph-1-1" x="69" y="32.226562"/>
<use xlink:href="#glyph-1-2" x="76" y="32.226562"/>
<use xlink:href="#glyph-1-3" x="89" y="32.226562"/>
</g>
<g fill="rgb(96.862745%, 85.098039%, 43.529412%)" fill-opacity="1">
<use xlink:href="#glyph-0-3" x="102" y="32.226562"/>
<use xlink:href="#glyph-0-4" x="106" y="32.226562"/>
</g>
<g fill="rgb(96.862745%, 85.098039%, 43.529412%)" fill-opacity="1">
<use xlink:href="#glyph-1-4" x="109" y="32.226562"/>
<use xlink:href="#glyph-1-5" x="122" y="32.226562"/>
<use xlink:href="#glyph-1-5" x="135" y="32.226562"/>
<use xlink:href="#glyph-1-1" x="148" y="32.226562"/>
<use xlink:href="#glyph-1-6" x="155" y="32.226562"/>
<use xlink:href="#glyph-1-7" x="168" y="32.226562"/>
</g>
<g fill="rgb(96.862745%, 85.098039%, 43.529412%)" fill-opacity="1">
<use xlink:href="#glyph-0-5" x="181" y="32.226562"/>
<use xlink:href="#glyph-0-4" x="187" y="32.226562"/>
</g>
<g fill="rgb(96.862745%, 85.098039%, 43.529412%)" fill-opacity="1">
<use xlink:href="#glyph-1-8" x="190" y="32.226562"/>
<use xlink:href="#glyph-1-6" x="203" y="32.226562"/>
<use xlink:href="#glyph-1-7" x="216" y="32.226562"/>
</g>
<g fill="rgb(96.862745%, 85.098039%, 43.529412%)" fill-opacity="1">
<use xlink:href="#glyph-0-5" x="229" y="32.226562"/>
<use xlink:href="#glyph-0-4" x="235" y="32.226562"/>
<use xlink:href="#glyph-0-6" x="238" y="32.226562"/>
</g>
<g fill="rgb(96.862745%, 85.098039%, 43.529412%)" fill-opacity="1">
<use xlink:href="#glyph-1-9" x="243" y="32.226562"/>
<use xlink:href="#glyph-1-10" x="256" y="32.226562"/>
<use xlink:href="#glyph-1-1" x="269" y="32.226562"/>
<use xlink:href="#glyph-1-11" x="276" y="32.226562"/>
<use xlink:href="#glyph-1-12" x="289" y="32.226562"/>
<use xlink:href="#glyph-1-1" x="302" y="32.226562"/>
<use xlink:href="#glyph-1-13" x="309" y="32.226562"/>
<use xlink:href="#glyph-1-14" x="322" y="32.226562"/>
<use xlink:href="#glyph-1-1" x="335" y="32.226562"/>
<use xlink:href="#glyph-1-15" x="342" y="32.226562"/>
<use xlink:href="#glyph-1-16" x="355" y="32.226562"/>
</g>
<g fill="rgb(96.862745%, 85.098039%, 43.529412%)" fill-opacity="1">
<use xlink:href="#glyph-0-7" x="368" y="32.226562"/>
</g>
</svg>
