<?xml version="1.0" encoding="UTF-8"?>
<svg xmlns="http://www.w3.org/2000/svg" xmlns:xlink="http://www.w3.org/1999/xlink" width="854" height="480" viewBox="0 0 854 480">
<defs>
<g>
<g id="glyph-0-0">
<path d="M 6.035156 -10.242188 L 2.019531 -10.242188 C 1.769531 -10.242188 1.644531 -10.128906 1.65625 -9.902344 C 1.65625 -9.667969 1.78125 -9.550781 2.035156 -9.550781 L 6.0625 -9.550781 C 6.269531 -9.550781 6.433594 -9.5 6.550781 -9.398438 C 6.660156 -9.300781 6.714844 -9.15625 6.714844 -8.964844 L 6.714844 -7.378906 C 6.714844 -5.472656 6.261719 -3.992188 5.359375 -2.941406 C 4.527344 -1.976562 3.332031 -1.410156 1.777344 -1.246094 C 1.523438 -1.230469 1.40625 -1.109375 1.425781 -0.882812 C 1.441406 -0.648438 1.578125 -0.539062 1.832031 -0.554688 C 3.496094 -0.664062 4.832031 -1.285156 5.847656 -2.414062 C 6.941406 -3.625 7.488281 -5.273438 7.488281 -7.351562 L 7.488281 -8.953125 C 7.488281 -9.351562 7.359375 -9.660156 7.109375 -9.886719 C 6.84375 -10.125 6.488281 -10.242188 6.035156 -10.242188 M 11.3125 0.269531 L 11.3125 -10.28125 C 11.3125 -10.398438 11.265625 -10.492188 11.175781 -10.566406 C 11.105469 -10.621094 11.015625 -10.648438 10.90625 -10.648438 C 10.789062 -10.648438 10.691406 -10.621094 10.621094 -10.566406 C 10.539062 -10.492188 10.5 -10.398438 10.5 -10.28125 L 10.5 0.269531 C 10.5 0.398438 10.539062 0.5 10.621094 0.582031 C 10.691406 0.65625 10.789062 0.691406 10.90625 0.691406 C 11.015625 0.691406 11.105469 0.65625 11.175781 0.582031 C 11.265625 0.5 11.3125 0.398438 11.3125 0.269531 Z "/>
</g>
<g id="glyph-0-1">
<path d="M 8.558594 -8.652344 L 2.15625 -8.652344 C 1.902344 -8.652344 1.777344 -8.535156 1.777344 -8.300781 C 1.777344 -8.066406 1.902344 -7.949219 2.15625 -7.949219 L 8.613281 -7.949219 C 8.730469 -7.949219 8.820312 -7.988281 8.882812 -8.070312 C 8.949219 -8.132812 8.980469 -8.210938 8.980469 -8.300781 C 8.96875 -8.402344 8.933594 -8.480469 8.871094 -8.546875 C 8.789062 -8.617188 8.683594 -8.652344 8.558594 -8.652344 M 7.242188 -10.269531 L 3.484375 -10.269531 C 3.234375 -10.269531 3.105469 -10.15625 3.105469 -9.929688 C 3.105469 -9.703125 3.234375 -9.589844 3.484375 -9.589844 L 7.269531 -9.589844 C 7.523438 -9.589844 7.644531 -9.703125 7.636719 -9.929688 C 7.636719 -10.15625 7.503906 -10.269531 7.242188 -10.269531 M 5.386719 -7.109375 C 4.425781 -7.109375 3.664062 -6.886719 3.09375 -6.441406 C 2.59375 -6.046875 2.347656 -5.554688 2.347656 -4.976562 C 2.347656 -4.390625 2.59375 -3.894531 3.09375 -3.484375 C 3.652344 -3.035156 4.417969 -2.808594 5.386719 -2.808594 C 6.324219 -2.808594 7.070312 -3.035156 7.621094 -3.484375 C 8.128906 -3.902344 8.382812 -4.398438 8.382812 -4.976562 C 8.382812 -5.546875 8.128906 -6.035156 7.621094 -6.441406 C 7.0625 -6.886719 6.316406 -7.109375 5.386719 -7.109375 M 5.386719 -6.414062 C 6.089844 -6.414062 6.640625 -6.265625 7.039062 -5.96875 C 7.390625 -5.707031 7.570312 -5.375 7.570312 -4.976562 C 7.570312 -4.570312 7.390625 -4.230469 7.039062 -3.960938 C 6.652344 -3.652344 6.097656 -3.5 5.386719 -3.5 C 4.660156 -3.5 4.097656 -3.652344 3.6875 -3.960938 C 3.335938 -4.230469 3.160156 -4.570312 3.160156 -4.976562 C 3.160156 -5.375 3.335938 -5.707031 3.6875 -5.96875 C 4.097656 -6.265625 4.660156 -6.414062 5.386719 -6.414062 M 5.792969 -1.125 L 5.792969 -2.917969 L 4.976562 -2.917969 L 4.976562 -1.070312 C 4.5625 -1.0625 3.941406 -1.054688 3.121094 -1.042969 C 2.675781 -1.035156 2.152344 -1.03125 1.546875 -1.03125 C 1.417969 -1.03125 1.316406 -0.996094 1.234375 -0.921875 C 1.171875 -0.859375 1.140625 -0.777344 1.140625 -0.679688 C 1.140625 -0.585938 1.179688 -0.511719 1.261719 -0.449219 C 1.34375 -0.367188 1.460938 -0.324219 1.613281 -0.324219 C 3.601562 -0.324219 5.191406 -0.378906 6.375 -0.488281 C 7.820312 -0.613281 9.023438 -0.835938 9.984375 -1.152344 C 10.074219 -1.1875 10.132812 -1.257812 10.160156 -1.355469 C 10.1875 -1.4375 10.1875 -1.523438 10.160156 -1.613281 C 10.125 -1.714844 10.0625 -1.78125 9.984375 -1.816406 C 9.890625 -1.871094 9.789062 -1.875 9.671875 -1.832031 C 9.066406 -1.625 8.4375 -1.460938 7.785156 -1.34375 C 7.097656 -1.214844 6.433594 -1.144531 5.792969 -1.125 M 11.3125 0.273438 L 11.3125 -10.28125 C 11.3125 -10.398438 11.265625 -10.488281 11.175781 -10.554688 C 11.105469 -10.617188 11.015625 -10.648438 10.90625 -10.648438 C 10.789062 -10.648438 10.691406 -10.617188 10.621094 -10.554688 C 10.539062 -10.480469 10.5 -10.386719 10.5 -10.269531 L 10.5 0.273438 C 10.5 0.398438 10.539062 0.503906 10.621094 0.582031 C 10.691406 0.65625 10.789062 0.691406 10.90625 0.691406 C 11.015625 0.691406 11.105469 0.65625 11.175781 0.582031 C 11.265625 0.503906 11.3125 0.398438 11.3125 0.273438 Z "/>
</g>
<g id="glyph-0-2">
</g>
<g id="glyph-0-3">
<path d="M 11.324219 -4.898438 L 9.644531 -4.898438 L 10.0625 -8.574219 C 10.074219 -8.707031 10.039062 -8.816406 9.957031 -8.898438 C 9.890625 -8.960938 9.804688 -8.996094 9.699219 -9.007812 C 9.589844 -9.015625 9.496094 -8.992188 9.414062 -8.9375 C 9.332031 -8.875 9.285156 -8.78125 9.277344 -8.652344 L 8.84375 -4.898438 L 5.046875 -4.898438 L 4.625 -8.667969 C 4.605469 -8.792969 4.554688 -8.890625 4.460938 -8.953125 C 4.382812 -9.007812 4.285156 -9.027344 4.175781 -9.019531 C 4.070312 -9.011719 3.984375 -8.976562 3.921875 -8.910156 C 3.839844 -8.828125 3.808594 -8.726562 3.824219 -8.597656 L 4.246094 -4.898438 L 2.5625 -4.898438 C 2.328125 -4.898438 2.210938 -4.785156 2.210938 -4.558594 C 2.203125 -4.324219 2.304688 -4.203125 2.523438 -4.203125 L 11.351562 -4.203125 C 11.578125 -4.203125 11.6875 -4.324219 11.679688 -4.558594 C 11.679688 -4.785156 11.5625 -4.898438 11.324219 -4.898438 M 11.273438 -10.292969 L 2.578125 -10.292969 C 2.324219 -10.292969 2.203125 -10.175781 2.210938 -9.941406 C 2.210938 -9.707031 2.332031 -9.589844 2.578125 -9.589844 L 11.324219 -9.589844 C 11.433594 -9.589844 11.519531 -9.628906 11.582031 -9.710938 C 11.648438 -9.773438 11.675781 -9.851562 11.664062 -9.941406 C 11.664062 -10.042969 11.632812 -10.125 11.570312 -10.1875 C 11.488281 -10.257812 11.390625 -10.292969 11.273438 -10.292969 M 6.566406 -3.582031 L 6.566406 -0.9375 L 1.683594 -0.9375 C 1.554688 -0.9375 1.457031 -0.902344 1.382812 -0.839844 C 1.320312 -0.769531 1.285156 -0.6875 1.273438 -0.597656 C 1.265625 -0.507812 1.289062 -0.425781 1.34375 -0.351562 C 1.398438 -0.28125 1.472656 -0.246094 1.574219 -0.246094 L 12.222656 -0.246094 C 12.339844 -0.246094 12.433594 -0.28125 12.503906 -0.351562 C 12.578125 -0.425781 12.613281 -0.507812 12.613281 -0.597656 C 12.613281 -0.6875 12.578125 -0.769531 12.503906 -0.839844 C 12.433594 -0.902344 12.335938 -0.9375 12.207031 -0.9375 L 7.351562 -0.9375 L 7.351562 -3.527344 C 7.351562 -3.652344 7.304688 -3.753906 7.214844 -3.824219 C 7.144531 -3.898438 7.058594 -3.933594 6.957031 -3.933594 C 6.851562 -3.941406 6.757812 -3.914062 6.6875 -3.851562 C 6.605469 -3.789062 6.566406 -3.699219 6.566406 -3.582031 Z "/>
</g>
<g id="glyph-0-4">
<path d="M 7.066406 -10.429688 L 3.59375 -10.429688 C 3.332031 -10.429688 3.199219 -10.3125 3.199219 -10.078125 C 3.199219 -9.84375 3.332031 -9.726562 3.59375 -9.726562 L 7.121094 -9.726562 C 7.339844 -9.726562 7.441406 -9.84375 7.433594 -10.078125 C 7.425781 -10.3125 7.300781 -10.429688 7.066406 -10.429688 M 8.421875 -8.828125 L 2.265625 -8.828125 C 2.011719 -8.828125 1.886719 -8.710938 1.886719 -8.476562 C 1.875 -8.242188 2 -8.125 2.25 -8.125 L 4.9375 -8.125 L 4.9375 -7.828125 C 4.9375 -7.074219 4.675781 -6.433594 4.152344 -5.898438 C 3.609375 -5.347656 2.84375 -4.960938 1.859375 -4.734375 C 1.730469 -4.707031 1.648438 -4.648438 1.613281 -4.558594 C 1.578125 -4.46875 1.578125 -4.371094 1.613281 -4.273438 C 1.648438 -4.171875 1.714844 -4.097656 1.804688 -4.042969 C 1.894531 -3.980469 2 -3.960938 2.117188 -3.988281 C 3.039062 -4.25 3.785156 -4.605469 4.355469 -5.058594 C 4.816406 -5.429688 5.140625 -5.847656 5.332031 -6.308594 C 5.511719 -5.875 5.859375 -5.472656 6.375 -5.101562 C 6.953125 -4.683594 7.667969 -4.367188 8.519531 -4.152344 C 8.652344 -4.125 8.777344 -4.140625 8.882812 -4.203125 C 8.984375 -4.257812 9.046875 -4.339844 9.074219 -4.449219 C 9.109375 -4.546875 9.101562 -4.648438 9.046875 -4.746094 C 8.992188 -4.847656 8.902344 -4.910156 8.777344 -4.9375 C 7.789062 -5.136719 7.035156 -5.484375 6.511719 -5.980469 C 5.996094 -6.480469 5.738281 -7.097656 5.738281 -7.839844 L 5.738281 -8.125 L 8.421875 -8.125 C 8.648438 -8.125 8.761719 -8.242188 8.761719 -8.476562 C 8.761719 -8.710938 8.648438 -8.828125 8.421875 -8.828125 M 10.90625 -7.378906 L 10.90625 -10.28125 C 10.90625 -10.527344 10.769531 -10.648438 10.5 -10.648438 C 10.234375 -10.648438 10.105469 -10.527344 10.105469 -10.28125 L 10.105469 -4.855469 C 10.105469 -4.730469 10.144531 -4.628906 10.226562 -4.558594 C 10.300781 -4.484375 10.390625 -4.449219 10.5 -4.449219 C 10.605469 -4.449219 10.699219 -4.484375 10.769531 -4.558594 C 10.859375 -4.628906 10.90625 -4.730469 10.90625 -4.855469 L 10.90625 -6.6875 L 12.382812 -6.6875 C 12.617188 -6.6875 12.738281 -6.804688 12.738281 -7.039062 C 12.738281 -7.265625 12.617188 -7.378906 12.382812 -7.378906 L 10.90625 -7.378906 M 9.566406 -3.324219 L 2.578125 -3.324219 C 2.324219 -3.324219 2.203125 -3.207031 2.210938 -2.96875 C 2.210938 -2.734375 2.332031 -2.617188 2.578125 -2.617188 L 9.5625 -2.617188 C 9.753906 -2.617188 9.894531 -2.578125 9.984375 -2.496094 C 10.0625 -2.421875 10.105469 -2.300781 10.105469 -2.128906 L 10.105469 0.285156 C 10.105469 0.410156 10.144531 0.515625 10.226562 0.597656 C 10.300781 0.660156 10.390625 0.691406 10.5 0.691406 C 10.605469 0.691406 10.699219 0.660156 10.769531 0.597656 C 10.859375 0.515625 10.90625 0.410156 10.90625 0.285156 L 10.90625 -2.128906 C 10.90625 -2.507812 10.792969 -2.804688 10.566406 -3.011719 C 10.332031 -3.21875 9.996094 -3.324219 9.566406 -3.324219 Z "/>
</g>
<g id="glyph-0-5">
<path d="M 4.691406 -9.957031 C 4.691406 -8.535156 4.414062 -7.007812 3.851562 -5.371094 C 3.265625 -3.664062 2.5 -2.21875 1.558594 -1.042969 C 1.460938 -0.9375 1.410156 -0.824219 1.410156 -0.707031 C 1.417969 -0.605469 1.460938 -0.523438 1.53125 -0.460938 C 1.605469 -0.398438 1.691406 -0.367188 1.789062 -0.367188 C 1.898438 -0.375 1.992188 -0.425781 2.074219 -0.515625 C 2.707031 -1.355469 3.261719 -2.234375 3.730469 -3.148438 C 4.089844 -3.878906 4.398438 -4.621094 4.652344 -5.371094 C 5.195312 -4.691406 5.753906 -3.90625 6.335938 -3.011719 C 6.886719 -2.152344 7.339844 -1.371094 7.691406 -0.664062 C 7.746094 -0.546875 7.832031 -0.46875 7.949219 -0.433594 C 8.058594 -0.40625 8.160156 -0.414062 8.261719 -0.460938 C 8.367188 -0.515625 8.4375 -0.597656 8.464844 -0.707031 C 8.507812 -0.824219 8.496094 -0.945312 8.421875 -1.070312 C 7.988281 -1.867188 7.464844 -2.707031 6.851562 -3.59375 C 6.269531 -4.445312 5.625 -5.308594 4.910156 -6.183594 C 5.089844 -6.882812 5.230469 -7.550781 5.332031 -8.191406 C 5.4375 -8.851562 5.492188 -9.441406 5.492188 -9.957031 C 5.492188 -10.082031 5.449219 -10.183594 5.359375 -10.253906 C 5.285156 -10.328125 5.195312 -10.363281 5.085938 -10.363281 C 4.976562 -10.363281 4.886719 -10.328125 4.816406 -10.253906 C 4.734375 -10.183594 4.691406 -10.082031 4.691406 -9.957031 M 11.3125 0.246094 L 11.3125 -10.242188 C 11.3125 -10.375 11.265625 -10.480469 11.175781 -10.554688 C 11.105469 -10.617188 11.015625 -10.648438 10.90625 -10.648438 C 10.789062 -10.648438 10.691406 -10.617188 10.621094 -10.550781 C 10.539062 -10.480469 10.5 -10.375 10.5 -10.242188 L 10.5 -5.875 L 6.863281 -5.875 C 6.726562 -5.875 6.617188 -5.839844 6.539062 -5.777344 C 6.464844 -5.714844 6.429688 -5.632812 6.429688 -5.535156 C 6.429688 -5.445312 6.46875 -5.367188 6.550781 -5.304688 C 6.632812 -5.230469 6.746094 -5.195312 6.890625 -5.195312 L 10.5 -5.195312 L 10.5 0.246094 C 10.5 0.378906 10.539062 0.488281 10.621094 0.570312 C 10.691406 0.652344 10.789062 0.691406 10.90625 0.691406 C 11.015625 0.691406 11.105469 0.652344 11.175781 0.570312 C 11.265625 0.488281 11.3125 0.378906 11.3125 0.246094 Z "/>
</g>
<g id="glyph-0-6">
<path d="M 6.945312 -10.578125 C 5.324219 -10.578125 4.113281 -10.40625 3.308594 -10.0625 C 2.578125 -9.746094 2.210938 -9.300781 2.210938 -8.722656 C 2.210938 -8.152344 2.578125 -7.707031 3.308594 -7.390625 C 4.113281 -7.039062 5.324219 -6.863281 6.945312 -6.863281 C 8.554688 -6.863281 9.761719 -7.039062 10.566406 -7.390625 C 11.308594 -7.707031 11.679688 -8.152344 11.679688 -8.722656 C 11.679688 -9.300781 11.308594 -9.746094 10.566406 -10.0625 C 9.761719 -10.40625 8.554688 -10.578125 6.945312 -10.578125 M 6.945312 -9.886719 C 8.308594 -9.886719 9.316406 -9.789062 9.96875 -9.589844 C 10.585938 -9.398438 10.890625 -9.109375 10.890625 -8.722656 C 10.890625 -8.351562 10.585938 -8.070312 9.96875 -7.878906 C 9.328125 -7.671875 8.320312 -7.570312 6.945312 -7.570312 C 5.5625 -7.570312 4.546875 -7.671875 3.90625 -7.878906 C 3.308594 -8.070312 3.011719 -8.351562 3.011719 -8.722656 C 3.011719 -9.109375 3.308594 -9.398438 3.90625 -9.589844 C 4.558594 -9.789062 5.570312 -9.886719 6.945312 -9.886719 M 12.25 -5.804688 L 1.683594 -5.804688 C 1.410156 -5.804688 1.273438 -5.691406 1.273438 -5.464844 C 1.273438 -5.230469 1.40625 -5.113281 1.667969 -5.113281 L 6.550781 -5.113281 L 6.550781 -3.960938 C 6.550781 -3.835938 6.59375 -3.734375 6.671875 -3.664062 C 6.746094 -3.597656 6.835938 -3.566406 6.945312 -3.566406 C 7.042969 -3.566406 7.128906 -3.601562 7.203125 -3.675781 C 7.292969 -3.757812 7.339844 -3.859375 7.339844 -3.988281 L 7.339844 -5.113281 L 12.273438 -5.113281 C 12.5 -5.113281 12.613281 -5.230469 12.613281 -5.464844 C 12.605469 -5.691406 12.484375 -5.804688 12.25 -5.804688 M 10.28125 -3.59375 L 2.753906 -3.59375 C 2.480469 -3.59375 2.34375 -3.480469 2.332031 -3.253906 C 2.332031 -3.019531 2.46875 -2.902344 2.738281 -2.902344 L 10.1875 -2.902344 C 10.375 -2.902344 10.511719 -2.871094 10.59375 -2.808594 C 10.675781 -2.746094 10.714844 -2.636719 10.714844 -2.480469 L 10.714844 -2.210938 C 10.714844 -2.09375 10.671875 -2.007812 10.578125 -1.953125 C 10.5 -1.90625 10.375 -1.886719 10.214844 -1.886719 L 3.40625 -1.886719 C 3.070312 -1.886719 2.8125 -1.796875 2.632812 -1.613281 C 2.449219 -1.433594 2.359375 -1.195312 2.359375 -0.894531 L 2.359375 -0.378906 C 2.359375 -0.0976562 2.445312 0.121094 2.617188 0.285156 C 2.789062 0.457031 3.027344 0.542969 3.335938 0.542969 L 11.3125 0.542969 C 11.429688 0.542969 11.519531 0.507812 11.582031 0.433594 C 11.648438 0.363281 11.679688 0.28125 11.679688 0.191406 C 11.667969 0.0976562 11.632812 0.0195312 11.570312 -0.0546875 C 11.488281 -0.117188 11.382812 -0.148438 11.257812 -0.148438 L 3.636719 -0.148438 C 3.472656 -0.148438 3.355469 -0.175781 3.28125 -0.230469 C 3.210938 -0.285156 3.175781 -0.378906 3.175781 -0.515625 L 3.175781 -0.757812 C 3.175781 -0.902344 3.207031 -1.011719 3.269531 -1.085938 C 3.339844 -1.15625 3.46875 -1.195312 3.648438 -1.195312 L 10.527344 -1.195312 C 10.816406 -1.195312 11.054688 -1.285156 11.246094 -1.464844 C 11.433594 -1.644531 11.527344 -1.867188 11.527344 -2.128906 L 11.527344 -2.699219 C 11.527344 -2.96875 11.402344 -3.191406 11.148438 -3.363281 C 10.914062 -3.515625 10.625 -3.59375 10.28125 -3.59375 Z "/>
</g>
<g id="glyph-0-7">
<path d="M 6.035156 -10.242188 L 2.019531 -10.242188 C 1.769531 -10.242188 1.644531 -10.128906 1.65625 -9.902344 C 1.65625 -9.667969 1.78125 -9.550781 2.035156 -9.550781 L 6.0625 -9.550781 C 6.269531 -9.550781 6.433594 -9.5 6.550781 -9.398438 C 6.660156 -9.300781 6.714844 -9.15625 6.714844 -8.964844 L 6.714844 -7.378906 C 6.714844 -5.472656 6.261719 -3.992188 5.359375 -2.941406 C 4.527344 -1.976562 3.332031 -1.410156 1.777344 -1.246094 C 1.523438 -1.230469 1.40625 -1.109375 1.425781 -0.882812 C 1.441406 -0.648438 1.578125 -0.539062 1.832031 -0.554688 C 3.496094 -0.664062 4.832031 -1.285156 5.847656 -2.414062 C 6.941406 -3.625 7.488281 -5.273438 7.488281 -7.351562 L 7.488281 -8.953125 C 7.488281 -9.351562 7.359375 -9.660156 7.109375 -9.886719 C 6.84375 -10.125 6.488281 -10.242188 6.035156 -10.242188 M 10.90625 -5.316406 L 10.90625 -10.28125 C 10.90625 -10.398438 10.859375 -10.492188 10.769531 -10.566406 C 10.699219 -10.621094 10.605469 -10.648438 10.5 -10.648438 C 10.390625 -10.648438 10.300781 -10.621094 10.226562 -10.566406 C 10.144531 -10.492188 10.105469 -10.398438 10.105469 -10.28125 L 10.105469 0.296875 C 10.105469 0.414062 10.144531 0.511719 10.226562 0.582031 C 10.300781 0.65625 10.390625 0.691406 10.5 0.691406 C 10.605469 0.691406 10.699219 0.65625 10.769531 0.582031 C 10.859375 0.511719 10.90625 0.414062 10.90625 0.296875 L 10.90625 -4.652344 L 12.410156 -4.652344 C 12.628906 -4.652344 12.738281 -4.765625 12.738281 -4.992188 C 12.738281 -5.207031 12.628906 -5.316406 12.410156 -5.316406 Z "/>
</g>
<g id="glyph-0-8">
<path d="M 6.851562 -7.554688 L 6.851562 -5.410156 C 6.851562 -5.230469 6.789062 -5.101562 6.671875 -5.019531 C 6.574219 -4.9375 6.414062 -4.898438 6.199219 -4.898438 L 3.242188 -4.898438 C 3.035156 -4.898438 2.894531 -4.933594 2.820312 -5.003906 C 2.730469 -5.078125 2.6875 -5.214844 2.6875 -5.410156 L 2.6875 -7.554688 L 6.851562 -7.554688 M 6.851562 -9.941406 L 6.851562 -8.246094 L 2.6875 -8.246094 L 2.6875 -9.875 C 2.6875 -10.019531 2.640625 -10.132812 2.550781 -10.214844 C 2.476562 -10.285156 2.386719 -10.320312 2.277344 -10.320312 C 2.171875 -10.320312 2.078125 -10.28125 2.007812 -10.199219 C 1.925781 -10.117188 1.886719 -10.003906 1.886719 -9.859375 L 1.886719 -5.25 C 1.886719 -4.914062 1.992188 -4.652344 2.210938 -4.460938 C 2.417969 -4.289062 2.691406 -4.203125 3.023438 -4.203125 L 6.429688 -4.203125 C 6.78125 -4.203125 7.066406 -4.304688 7.285156 -4.503906 C 7.511719 -4.691406 7.621094 -4.941406 7.621094 -5.25 L 7.621094 -9.929688 C 7.621094 -10.191406 7.492188 -10.320312 7.230469 -10.320312 C 6.976562 -10.320312 6.851562 -10.195312 6.851562 -9.941406 M 11.3125 -2.808594 L 11.3125 -10.28125 C 11.3125 -10.398438 11.265625 -10.488281 11.175781 -10.554688 C 11.105469 -10.617188 11.015625 -10.648438 10.90625 -10.648438 C 10.789062 -10.648438 10.691406 -10.617188 10.621094 -10.554688 C 10.539062 -10.480469 10.5 -10.386719 10.5 -10.269531 L 10.5 -8.546875 L 8.179688 -8.546875 C 8.042969 -8.546875 7.9375 -8.511719 7.867188 -8.449219 C 7.804688 -8.378906 7.773438 -8.296875 7.773438 -8.207031 C 7.78125 -8.117188 7.820312 -8.035156 7.894531 -7.960938 C 7.984375 -7.890625 8.101562 -7.851562 8.246094 -7.851562 L 10.5 -7.851562 L 10.5 -6.078125 L 8.207031 -6.078125 C 8.070312 -6.078125 7.960938 -6.046875 7.878906 -5.980469 C 7.816406 -5.917969 7.785156 -5.835938 7.785156 -5.738281 C 7.785156 -5.648438 7.820312 -5.570312 7.894531 -5.507812 C 7.976562 -5.433594 8.085938 -5.398438 8.21875 -5.398438 L 10.5 -5.398438 L 10.5 -2.808594 C 10.5 -2.671875 10.539062 -2.5625 10.621094 -2.480469 C 10.691406 -2.410156 10.789062 -2.375 10.90625 -2.375 C 11.015625 -2.375 11.105469 -2.410156 11.175781 -2.480469 C 11.265625 -2.5625 11.3125 -2.671875 11.3125 -2.808594 M 3.40625 -2.644531 C 3.40625 -2.789062 3.359375 -2.902344 3.269531 -2.984375 C 3.195312 -3.054688 3.105469 -3.09375 2.996094 -3.09375 C 2.878906 -3.09375 2.785156 -3.054688 2.710938 -2.984375 C 2.632812 -2.902344 2.589844 -2.789062 2.589844 -2.644531 L 2.589844 -0.839844 C 2.589844 -0.441406 2.71875 -0.140625 2.96875 0.0664062 C 3.207031 0.265625 3.527344 0.367188 3.933594 0.367188 L 11.378906 0.367188 C 11.605469 0.367188 11.71875 0.25 11.71875 0.0117188 C 11.71875 -0.210938 11.605469 -0.324219 11.378906 -0.324219 L 4.070312 -0.324219 C 3.808594 -0.324219 3.628906 -0.367188 3.539062 -0.449219 C 3.449219 -0.539062 3.40625 -0.707031 3.40625 -0.949219 Z "/>
</g>
<g id="glyph-0-9">
<path d="M 3.675781 -6.632812 L 11.351562 -6.632812 C 11.578125 -6.632812 11.6875 -6.75 11.679688 -6.984375 C 11.679688 -7.21875 11.5625 -7.339844 11.324219 -7.339844 L 3.714844 -7.339844 C 3.515625 -7.339844 3.378906 -7.378906 3.296875 -7.460938 C 3.214844 -7.53125 3.175781 -7.65625 3.175781 -7.828125 L 3.175781 -9.292969 C 3.175781 -9.445312 3.21875 -9.558594 3.308594 -9.628906 C 3.398438 -9.703125 3.539062 -9.738281 3.730469 -9.738281 L 11.21875 -9.738281 C 11.316406 -9.738281 11.394531 -9.78125 11.449219 -9.859375 C 11.503906 -9.925781 11.527344 -10 11.527344 -10.089844 C 11.519531 -10.191406 11.484375 -10.273438 11.421875 -10.335938 C 11.355469 -10.40625 11.265625 -10.445312 11.148438 -10.445312 L 3.59375 -10.445312 C 3.214844 -10.445312 2.910156 -10.34375 2.6875 -10.144531 C 2.46875 -9.9375 2.359375 -9.671875 2.359375 -9.34375 L 2.359375 -7.785156 C 2.359375 -7.433594 2.472656 -7.152344 2.699219 -6.945312 C 2.933594 -6.738281 3.261719 -6.632812 3.675781 -6.632812 M 12.207031 -4.898438 L 7.324219 -4.898438 L 7.324219 -6.386719 C 7.324219 -6.625 7.191406 -6.738281 6.929688 -6.726562 C 6.667969 -6.726562 6.539062 -6.605469 6.539062 -6.363281 L 6.539062 -4.898438 L 1.683594 -4.898438 C 1.554688 -4.898438 1.457031 -4.863281 1.382812 -4.800781 C 1.320312 -4.730469 1.285156 -4.648438 1.273438 -4.558594 C 1.265625 -4.46875 1.289062 -4.386719 1.34375 -4.3125 C 1.398438 -4.242188 1.472656 -4.203125 1.574219 -4.203125 L 12.222656 -4.203125 C 12.339844 -4.203125 12.433594 -4.242188 12.503906 -4.3125 C 12.578125 -4.386719 12.613281 -4.46875 12.613281 -4.558594 C 12.613281 -4.648438 12.578125 -4.730469 12.503906 -4.800781 C 12.433594 -4.863281 12.335938 -4.898438 12.207031 -4.898438 M 6.945312 -3.253906 C 5.335938 -3.253906 4.125 -3.066406 3.308594 -2.6875 C 2.578125 -2.34375 2.210938 -1.867188 2.210938 -1.261719 C 2.210938 -0.664062 2.578125 -0.195312 3.308594 0.148438 C 4.125 0.527344 5.335938 0.71875 6.945312 0.71875 C 8.546875 0.71875 9.753906 0.527344 10.566406 0.148438 C 11.308594 -0.195312 11.679688 -0.664062 11.679688 -1.261719 C 11.679688 -1.875 11.308594 -2.351562 10.566406 -2.6875 C 9.761719 -3.066406 8.554688 -3.253906 6.945312 -3.253906 M 6.945312 -2.578125 C 8.308594 -2.578125 9.324219 -2.460938 9.984375 -2.222656 C 10.589844 -2.007812 10.890625 -1.6875 10.890625 -1.261719 C 10.890625 -0.855469 10.589844 -0.546875 9.984375 -0.339844 C 9.324219 -0.09375 8.308594 0.0273438 6.945312 0.0273438 C 5.570312 0.0273438 4.554688 -0.09375 3.894531 -0.339844 C 3.296875 -0.546875 2.996094 -0.855469 2.996094 -1.261719 C 2.996094 -1.6875 3.296875 -2.007812 3.894531 -2.222656 C 4.554688 -2.460938 5.570312 -2.578125 6.945312 -2.578125 Z "/>
</g>
<g id="glyph-0-10">
<path d="M 4.21875 -10.308594 C 3.386719 -10.308594 2.75 -9.804688 2.304688 -8.804688 C 1.917969 -7.90625 1.722656 -6.75 1.722656 -5.332031 C 1.722656 -3.929688 1.917969 -2.785156 2.304688 -1.898438 C 2.75 -0.886719 3.386719 -0.378906 4.21875 -0.378906 C 5.050781 -0.378906 5.6875 -0.886719 6.128906 -1.898438 C 6.527344 -2.785156 6.726562 -3.929688 6.726562 -5.332031 C 6.726562 -6.75 6.527344 -7.90625 6.128906 -8.804688 C 5.6875 -9.804688 5.050781 -10.308594 4.21875 -10.308594 M 4.21875 -9.617188 C 4.789062 -9.617188 5.222656 -9.1875 5.519531 -8.328125 C 5.78125 -7.578125 5.914062 -6.578125 5.914062 -5.332031 C 5.914062 -4.109375 5.78125 -3.121094 5.519531 -2.359375 C 5.222656 -1.492188 4.789062 -1.058594 4.21875 -1.058594 C 3.640625 -1.058594 3.207031 -1.492188 2.917969 -2.359375 C 2.664062 -3.121094 2.535156 -4.109375 2.535156 -5.332031 C 2.535156 -6.570312 2.664062 -7.570312 2.917969 -8.328125 C 3.207031 -9.1875 3.640625 -9.617188 4.21875 -9.617188 M 8.300781 -10.269531 L 8.300781 -5.953125 L 6.457031 -5.953125 C 6.328125 -5.953125 6.230469 -5.917969 6.15625 -5.847656 C 6.085938 -5.78125 6.050781 -5.703125 6.050781 -5.601562 C 6.050781 -5.511719 6.085938 -5.433594 6.15625 -5.371094 C 6.230469 -5.289062 6.335938 -5.25 6.46875 -5.25 L 8.300781 -5.25 L 8.300781 0.269531 C 8.300781 0.398438 8.339844 0.5 8.421875 0.582031 C 8.496094 0.65625 8.589844 0.691406 8.707031 0.691406 C 8.816406 0.691406 8.90625 0.65625 8.980469 0.582031 C 9.070312 0.5 9.113281 0.398438 9.113281 0.269531 L 9.113281 -10.292969 C 9.113281 -10.414062 9.070312 -10.503906 8.980469 -10.566406 C 8.90625 -10.628906 8.816406 -10.65625 8.707031 -10.648438 C 8.589844 -10.648438 8.496094 -10.617188 8.421875 -10.550781 C 8.339844 -10.488281 8.300781 -10.394531 8.300781 -10.269531 M 11.664062 0.273438 L 11.664062 -10.28125 C 11.664062 -10.398438 11.621094 -10.488281 11.527344 -10.554688 C 11.457031 -10.617188 11.371094 -10.648438 11.273438 -10.648438 C 11.164062 -10.648438 11.074219 -10.617188 11 -10.554688 C 10.917969 -10.480469 10.878906 -10.386719 10.878906 -10.269531 L 10.878906 0.273438 C 10.878906 0.398438 10.917969 0.503906 11 0.582031 C 11.074219 0.65625 11.164062 0.691406 11.273438 0.691406 C 11.371094 0.691406 11.457031 0.65625 11.527344 0.582031 C 11.621094 0.503906 11.664062 0.398438 11.664062 0.273438 Z "/>
</g>
<g id="glyph-0-11">
<path d="M 3.609375 -6.363281 L 11.351562 -6.363281 C 11.578125 -6.363281 11.6875 -6.480469 11.679688 -6.714844 C 11.679688 -6.949219 11.5625 -7.066406 11.324219 -7.066406 L 3.714844 -7.066406 C 3.515625 -7.066406 3.378906 -7.109375 3.296875 -7.1875 C 3.214844 -7.261719 3.175781 -7.382812 3.175781 -7.554688 L 3.175781 -9.101562 C 3.175781 -9.273438 3.21875 -9.398438 3.308594 -9.480469 C 3.398438 -9.5625 3.539062 -9.601562 3.730469 -9.601562 L 11.21875 -9.601562 C 11.316406 -9.601562 11.394531 -9.640625 11.449219 -9.710938 C 11.503906 -9.785156 11.527344 -9.867188 11.527344 -9.957031 C 11.519531 -10.046875 11.484375 -10.128906 11.421875 -10.199219 C 11.355469 -10.261719 11.265625 -10.292969 11.148438 -10.292969 L 3.59375 -10.292969 C 3.207031 -10.292969 2.898438 -10.191406 2.671875 -9.984375 C 2.464844 -9.773438 2.359375 -9.503906 2.359375 -9.167969 L 2.359375 -7.554688 C 2.359375 -7.183594 2.46875 -6.890625 2.6875 -6.671875 C 2.902344 -6.464844 3.210938 -6.363281 3.609375 -6.363281 M 12.207031 -4.53125 L 7.324219 -4.53125 L 7.324219 -6.15625 C 7.324219 -6.265625 7.277344 -6.347656 7.1875 -6.402344 C 7.117188 -6.457031 7.03125 -6.484375 6.929688 -6.484375 C 6.824219 -6.484375 6.730469 -6.453125 6.660156 -6.386719 C 6.578125 -6.324219 6.539062 -6.234375 6.539062 -6.117188 L 6.539062 -4.53125 L 1.683594 -4.53125 C 1.417969 -4.53125 1.285156 -4.417969 1.273438 -4.191406 C 1.273438 -3.957031 1.402344 -3.839844 1.65625 -3.839844 L 12.222656 -3.839844 C 12.339844 -3.839844 12.433594 -3.875 12.503906 -3.945312 C 12.578125 -4.019531 12.613281 -4.101562 12.613281 -4.191406 C 12.613281 -4.28125 12.578125 -4.363281 12.503906 -4.433594 C 12.433594 -4.5 12.335938 -4.53125 12.207031 -4.53125 M 3.175781 -2.644531 C 3.175781 -2.796875 3.128906 -2.921875 3.039062 -3.011719 C 2.964844 -3.09375 2.875 -3.132812 2.765625 -3.132812 C 2.648438 -3.132812 2.554688 -3.09375 2.480469 -3.011719 C 2.402344 -2.929688 2.359375 -2.808594 2.359375 -2.644531 L 2.359375 -0.828125 C 2.359375 -0.476562 2.464844 -0.191406 2.671875 0.0273438 C 2.878906 0.253906 3.164062 0.367188 3.527344 0.367188 L 11.324219 0.367188 C 11.5625 0.367188 11.679688 0.25 11.679688 0.0117188 C 11.679688 -0.210938 11.5625 -0.324219 11.324219 -0.324219 L 3.824219 -0.324219 C 3.570312 -0.324219 3.398438 -0.367188 3.308594 -0.449219 C 3.21875 -0.539062 3.175781 -0.707031 3.175781 -0.949219 Z "/>
</g>
<g id="glyph-0-12">
<path d="M 6.851562 -6.023438 L 6.851562 -1.695312 C 6.851562 -1.503906 6.789062 -1.371094 6.671875 -1.289062 C 6.566406 -1.199219 6.40625 -1.152344 6.199219 -1.152344 L 3.242188 -1.152344 C 3.042969 -1.152344 2.902344 -1.195312 2.820312 -1.273438 C 2.730469 -1.355469 2.6875 -1.496094 2.6875 -1.695312 L 2.6875 -6.023438 L 6.851562 -6.023438 M 6.851562 -9.941406 L 6.851562 -6.714844 L 2.6875 -6.714844 L 2.6875 -9.875 C 2.6875 -10.019531 2.640625 -10.132812 2.550781 -10.214844 C 2.476562 -10.285156 2.386719 -10.320312 2.277344 -10.320312 C 2.171875 -10.320312 2.078125 -10.28125 2.007812 -10.199219 C 1.925781 -10.117188 1.886719 -10.003906 1.886719 -9.859375 L 1.886719 -1.558594 C 1.886719 -1.234375 1.984375 -0.972656 2.183594 -0.773438 C 2.390625 -0.566406 2.664062 -0.460938 2.996094 -0.460938 L 6.511719 -0.460938 C 6.84375 -0.460938 7.117188 -0.566406 7.324219 -0.773438 C 7.523438 -0.972656 7.621094 -1.230469 7.621094 -1.546875 L 7.621094 -9.929688 C 7.621094 -10.191406 7.492188 -10.320312 7.230469 -10.320312 C 6.976562 -10.320312 6.851562 -10.195312 6.851562 -9.941406 M 11.3125 0.203125 L 11.3125 -10.242188 C 11.3125 -10.375 11.265625 -10.480469 11.175781 -10.554688 C 11.105469 -10.617188 11.015625 -10.648438 10.90625 -10.648438 C 10.789062 -10.648438 10.691406 -10.617188 10.621094 -10.550781 C 10.539062 -10.480469 10.5 -10.375 10.5 -10.242188 L 10.5 -5.804688 L 8.179688 -5.804688 C 8.050781 -5.804688 7.957031 -5.773438 7.894531 -5.710938 C 7.832031 -5.636719 7.800781 -5.554688 7.800781 -5.464844 C 7.808594 -5.375 7.847656 -5.292969 7.921875 -5.222656 C 8.003906 -5.148438 8.109375 -5.113281 8.246094 -5.113281 L 10.5 -5.113281 L 10.5 0.203125 C 10.5 0.359375 10.539062 0.480469 10.621094 0.570312 C 10.691406 0.652344 10.789062 0.691406 10.90625 0.691406 C 11.015625 0.691406 11.105469 0.652344 11.175781 0.570312 C 11.265625 0.46875 11.3125 0.347656 11.3125 0.203125 Z "/>
</g>
<g id="glyph-0-13">
<path d="M 3.757812 -6.6875 L 11.324219 -6.6875 C 11.433594 -6.6875 11.523438 -6.722656 11.597656 -6.796875 C 11.652344 -6.867188 11.679688 -6.949219 11.679688 -7.039062 C 11.679688 -7.128906 11.640625 -7.210938 11.570312 -7.285156 C 11.496094 -7.347656 11.398438 -7.378906 11.273438 -7.378906 L 3.878906 -7.378906 C 3.617188 -7.378906 3.429688 -7.433594 3.324219 -7.542969 C 3.222656 -7.632812 3.175781 -7.789062 3.175781 -8.015625 L 3.175781 -10.0625 C 3.175781 -10.199219 3.128906 -10.308594 3.039062 -10.390625 C 2.964844 -10.460938 2.875 -10.5 2.765625 -10.5 C 2.648438 -10.5 2.554688 -10.460938 2.480469 -10.390625 C 2.402344 -10.308594 2.359375 -10.195312 2.359375 -10.050781 L 2.359375 -7.867188 C 2.359375 -7.515625 2.492188 -7.230469 2.753906 -7.011719 C 3.015625 -6.796875 3.351562 -6.6875 3.757812 -6.6875 M 12.207031 -4.976562 L 1.628906 -4.976562 C 1.382812 -4.976562 1.261719 -4.863281 1.261719 -4.640625 C 1.269531 -4.414062 1.398438 -4.300781 1.640625 -4.300781 L 12.300781 -4.300781 C 12.402344 -4.300781 12.480469 -4.335938 12.53125 -4.410156 C 12.585938 -4.472656 12.613281 -4.546875 12.613281 -4.640625 C 12.605469 -4.738281 12.570312 -4.820312 12.503906 -4.882812 C 12.425781 -4.945312 12.324219 -4.976562 12.207031 -4.976562 M 3.175781 -2.644531 C 3.175781 -2.796875 3.128906 -2.921875 3.039062 -3.011719 C 2.964844 -3.09375 2.875 -3.132812 2.765625 -3.132812 C 2.648438 -3.132812 2.554688 -3.09375 2.480469 -3.011719 C 2.402344 -2.929688 2.359375 -2.808594 2.359375 -2.644531 L 2.359375 -0.828125 C 2.359375 -0.476562 2.464844 -0.191406 2.671875 0.0273438 C 2.878906 0.253906 3.164062 0.367188 3.527344 0.367188 L 11.324219 0.367188 C 11.5625 0.367188 11.679688 0.25 11.679688 0.0117188 C 11.679688 -0.210938 11.5625 -0.324219 11.324219 -0.324219 L 3.824219 -0.324219 C 3.570312 -0.324219 3.398438 -0.367188 3.308594 -0.449219 C 3.21875 -0.539062 3.175781 -0.707031 3.175781 -0.949219 Z "/>
</g>
<g id="glyph-0-14">
<path d="M 6.851562 -7.933594 L 6.851562 -6.023438 C 6.851562 -5.832031 6.796875 -5.695312 6.6875 -5.617188 C 6.585938 -5.535156 6.425781 -5.492188 6.199219 -5.492188 L 3.242188 -5.492188 C 3.042969 -5.492188 2.902344 -5.535156 2.820312 -5.617188 C 2.730469 -5.695312 2.6875 -5.832031 2.6875 -6.023438 L 2.6875 -7.933594 L 6.851562 -7.933594 M 6.851562 -10.023438 L 6.851562 -8.640625 L 2.6875 -8.640625 L 2.6875 -9.984375 C 2.6875 -10.117188 2.640625 -10.226562 2.550781 -10.308594 C 2.476562 -10.371094 2.386719 -10.402344 2.277344 -10.402344 C 2.171875 -10.402344 2.078125 -10.367188 2.007812 -10.292969 C 1.925781 -10.214844 1.886719 -10.105469 1.886719 -9.96875 L 1.886719 -5.898438 C 1.886719 -5.554688 1.992188 -5.289062 2.210938 -5.101562 C 2.417969 -4.910156 2.699219 -4.816406 3.050781 -4.816406 L 6.429688 -4.816406 C 6.773438 -4.816406 7.054688 -4.910156 7.269531 -5.101562 C 7.503906 -5.300781 7.621094 -5.570312 7.621094 -5.914062 L 7.621094 -10.023438 C 7.621094 -10.148438 7.582031 -10.246094 7.5 -10.308594 C 7.429688 -10.371094 7.339844 -10.402344 7.230469 -10.402344 C 7.121094 -10.402344 7.03125 -10.371094 6.957031 -10.308594 C 6.886719 -10.246094 6.851562 -10.148438 6.851562 -10.023438 M 11.3125 -4.882812 L 11.3125 -10.253906 C 11.3125 -10.382812 11.265625 -10.480469 11.175781 -10.554688 C 11.105469 -10.617188 11.015625 -10.648438 10.90625 -10.648438 C 10.789062 -10.648438 10.691406 -10.613281 10.621094 -10.539062 C 10.539062 -10.46875 10.5 -10.367188 10.5 -10.242188 L 10.5 -7.894531 L 8.179688 -7.894531 C 8.050781 -7.894531 7.957031 -7.863281 7.894531 -7.800781 C 7.832031 -7.726562 7.800781 -7.644531 7.800781 -7.554688 C 7.808594 -7.464844 7.847656 -7.382812 7.921875 -7.3125 C 8.003906 -7.238281 8.109375 -7.203125 8.246094 -7.203125 L 10.5 -7.203125 L 10.5 -4.882812 C 10.5 -4.757812 10.539062 -4.652344 10.621094 -4.570312 C 10.691406 -4.5 10.789062 -4.460938 10.90625 -4.460938 C 11.015625 -4.460938 11.105469 -4.5 11.175781 -4.570312 C 11.265625 -4.652344 11.3125 -4.753906 11.3125 -4.882812 M 10.5 -3.417969 L 10.5 -2.578125 L 3.472656 -2.578125 L 3.472656 -3.417969 C 3.472656 -3.542969 3.425781 -3.644531 3.335938 -3.714844 C 3.265625 -3.78125 3.175781 -3.8125 3.066406 -3.8125 C 2.957031 -3.8125 2.867188 -3.78125 2.792969 -3.714844 C 2.710938 -3.644531 2.671875 -3.542969 2.671875 -3.417969 L 2.671875 -0.625 C 2.671875 -0.335938 2.757812 -0.0976562 2.929688 0.0820312 C 3.109375 0.269531 3.359375 0.367188 3.675781 0.367188 L 10.226562 0.367188 C 10.5625 0.367188 10.828125 0.269531 11.027344 0.0820312 C 11.21875 -0.0898438 11.3125 -0.316406 11.3125 -0.597656 L 11.3125 -3.417969 C 11.3125 -3.542969 11.265625 -3.644531 11.175781 -3.714844 C 11.105469 -3.78125 11.015625 -3.8125 10.90625 -3.8125 C 10.789062 -3.8125 10.691406 -3.78125 10.621094 -3.714844 C 10.539062 -3.644531 10.5 -3.542969 10.5 -3.417969 M 10.5 -1.886719 L 10.5 -0.773438 C 10.5 -0.609375 10.460938 -0.496094 10.390625 -0.433594 C 10.316406 -0.363281 10.1875 -0.324219 9.996094 -0.324219 L 3.988281 -0.324219 C 3.796875 -0.324219 3.664062 -0.367188 3.582031 -0.449219 C 3.507812 -0.519531 3.472656 -0.632812 3.472656 -0.785156 L 3.472656 -1.886719 Z "/>
</g>
<g id="glyph-1-0">
<path d="M 3.097656 -5.789062 C 3.097656 -5.535156 3.007812 -5.320312 2.824219 -5.140625 C 2.640625 -4.960938 2.421875 -4.871094 2.171875 -4.871094 C 1.917969 -4.871094 1.699219 -4.960938 1.515625 -5.140625 C 1.332031 -5.320312 1.242188 -5.535156 1.242188 -5.789062 C 1.242188 -6.039062 1.332031 -6.257812 1.511719 -6.441406 C 1.691406 -6.621094 1.914062 -6.714844 2.171875 -6.714844 C 2.429688 -6.714844 2.648438 -6.621094 2.828125 -6.441406 C 3.007812 -6.257812 3.097656 -6.039062 3.097656 -5.789062 M 3.097656 -0.78125 C 3.097656 -0.527344 3.007812 -0.3125 2.824219 -0.132812 C 2.640625 0.046875 2.421875 0.136719 2.171875 0.136719 C 1.917969 0.136719 1.699219 0.046875 1.515625 -0.132812 C 1.332031 -0.3125 1.242188 -0.527344 1.242188 -0.78125 C 1.242188 -1.03125 1.332031 -1.25 1.515625 -1.433594 C 1.699219 -1.617188 1.917969 -1.710938 2.171875 -1.710938 C 2.421875 -1.710938 2.640625 -1.617188 2.824219 -1.433594 C 3.007812 -1.25 3.097656 -1.03125 3.097656 -0.78125 Z "/>
</g>
<g id="glyph-1-1">
</g>
</g>
</defs>
<g fill="rgb(100%, 100%, 100%)" fill-opacity="1">
<use xlink:href="#glyph-0-0" x="30" y="33.625"/>
<use xlink:href="#glyph-0-1" x="44" y="33.625"/>
<use xlink:href="#glyph-0-2" x="58" y="33.625"/>
<use xlink:href="#glyph-0-3" x="65" y="33.625"/>
<use xlink:href="#glyph-0-4" x="79" y="33.625"/>
</g>
<g fill="rgb(100%, 100%, 100%)" fill-opacity="1">
<use xlink:href="#glyph-1-0" x="93" y="32.735352"/>
<use xlink:href="#glyph-1-1" x="97" y="32.735352"/>
</g>
<g fill="rgb(100%, 100%, 100%)" fill-opacity="1">
<use xlink:href="#glyph-0-5" x="100" y="33.625"/>
<use xlink:href="#glyph-0-6" x="114" y="33.625"/>
<use xlink:href="#glyph-0-7" x="128" y="33.625"/>
<use xlink:href="#glyph-0-2" x="142" y="33.625"/>
<use xlink:href="#glyph-0-8" x="149" y="33.625"/>
<use xlink:href="#glyph-0-9" x="163" y="33.625"/>
<use xlink:href="#glyph-0-10" x="177" y="33.625"/>
<use xlink:href="#glyph-0-5" x="191" y="33.625"/>
<use xlink:href="#glyph-0-2" x="205" y="33.625"/>
<use xlink:href="#glyph-0-11" x="212" y="33.625"/>
<use xlink:href="#glyph-0-2" x="226" y="33.625"/>
<use xlink:href="#glyph-0-12" x="233" y="33.625"/>
<use xlink:href="#glyph-0-13" x="247" y="33.625"/>
<use xlink:href="#glyph-0-2" x="261" y="33.625"/>
<use xlink:href="#glyph-0-14" x="268" y="33.625"/>
</g>
</svg>
