<?xml version="1.0" encoding="UTF-8"?>
<svg xmlns="http://www.w3.org/2000/svg" xmlns:xlink="http://www.w3.org/1999/xlink" width="854" height="480" viewBox="0 0 854 480">
<defs>
<g>
<g id="glyph-0-0">
<path d="M 4.503906 -9.558594 C 4.503906 -8.195312 4.234375 -6.726562 3.699219 -5.15625 C 3.132812 -3.515625 2.398438 -2.132812 1.496094 -1.003906 C 1.402344 -0.898438 1.355469 -0.789062 1.355469 -0.675781 C 1.363281 -0.582031 1.402344 -0.503906 1.472656 -0.441406 C 1.539062 -0.382812 1.625 -0.351562 1.71875 -0.351562 C 1.824219 -0.359375 1.914062 -0.40625 1.992188 -0.496094 C 2.601562 -1.300781 3.128906 -2.144531 3.582031 -3.019531 C 3.929688 -3.722656 4.222656 -4.4375 4.464844 -5.15625 C 4.988281 -4.503906 5.523438 -3.75 6.082031 -2.890625 C 6.609375 -2.066406 7.042969 -1.316406 7.382812 -0.636719 C 7.433594 -0.523438 7.515625 -0.453125 7.628906 -0.417969 C 7.734375 -0.390625 7.835938 -0.398438 7.929688 -0.441406 C 8.035156 -0.496094 8.097656 -0.574219 8.125 -0.675781 C 8.167969 -0.789062 8.15625 -0.90625 8.085938 -1.027344 C 7.667969 -1.792969 7.164062 -2.601562 6.574219 -3.449219 C 6.019531 -4.265625 5.398438 -5.09375 4.714844 -5.9375 C 4.886719 -6.605469 5.023438 -7.25 5.117188 -7.863281 C 5.222656 -8.5 5.273438 -9.0625 5.273438 -9.558594 C 5.273438 -9.679688 5.230469 -9.773438 5.144531 -9.84375 C 5.074219 -9.914062 4.988281 -9.949219 4.882812 -9.949219 C 4.777344 -9.949219 4.691406 -9.914062 4.621094 -9.84375 C 4.542969 -9.773438 4.503906 -9.679688 4.503906 -9.558594 M 10.859375 0.234375 L 10.859375 -9.832031 C 10.859375 -9.960938 10.816406 -10.0625 10.730469 -10.128906 C 10.660156 -10.191406 10.574219 -10.222656 10.46875 -10.222656 C 10.355469 -10.222656 10.265625 -10.191406 10.195312 -10.128906 C 10.117188 -10.0625 10.078125 -9.960938 10.078125 -9.832031 L 10.078125 -5.636719 L 6.589844 -5.636719 C 6.457031 -5.636719 6.355469 -5.609375 6.277344 -5.546875 C 6.207031 -5.484375 6.171875 -5.40625 6.171875 -5.3125 C 6.171875 -5.226562 6.210938 -5.152344 6.289062 -5.089844 C 6.367188 -5.023438 6.476562 -4.988281 6.613281 -4.988281 L 10.078125 -4.988281 L 10.078125 0.234375 C 10.078125 0.367188 10.117188 0.46875 10.195312 0.546875 C 10.265625 0.625 10.355469 0.664062 10.46875 0.664062 C 10.574219 0.664062 10.660156 0.625 10.730469 0.546875 C 10.816406 0.46875 10.859375 0.363281 10.859375 0.234375 Z "/>
</g>
<g id="glyph-0-1">
<path d="M 6.667969 -10.15625 C 5.113281 -10.15625 3.949219 -9.992188 3.175781 -9.660156 C 2.472656 -9.359375 2.121094 -8.929688 2.121094 -8.371094 C 2.121094 -7.824219 2.472656 -7.398438 3.175781 -7.097656 C 3.949219 -6.757812 5.113281 -6.589844 6.667969 -6.589844 C 8.210938 -6.589844 9.371094 -6.757812 10.144531 -7.097656 C 10.855469 -7.398438 11.210938 -7.824219 11.210938 -8.371094 C 11.210938 -8.929688 10.855469 -9.359375 10.144531 -9.660156 C 9.371094 -9.992188 8.210938 -10.15625 6.667969 -10.15625 M 6.667969 -9.492188 C 7.976562 -9.492188 8.945312 -9.398438 9.570312 -9.207031 C 10.160156 -9.023438 10.457031 -8.746094 10.457031 -8.371094 C 10.457031 -8.015625 10.160156 -7.746094 9.570312 -7.566406 C 8.953125 -7.367188 7.984375 -7.265625 6.667969 -7.265625 C 5.339844 -7.265625 4.367188 -7.367188 3.75 -7.566406 C 3.175781 -7.746094 2.890625 -8.015625 2.890625 -8.371094 C 2.890625 -8.746094 3.175781 -9.023438 3.75 -9.207031 C 4.375 -9.398438 5.347656 -9.492188 6.667969 -9.492188 M 11.757812 -5.574219 L 1.613281 -5.574219 C 1.355469 -5.574219 1.222656 -5.464844 1.222656 -5.246094 C 1.222656 -5.023438 1.351562 -4.910156 1.601562 -4.910156 L 6.289062 -4.910156 L 6.289062 -3.800781 C 6.289062 -3.679688 6.328125 -3.585938 6.40625 -3.515625 C 6.476562 -3.453125 6.5625 -3.425781 6.667969 -3.425781 C 6.761719 -3.425781 6.84375 -3.460938 6.914062 -3.527344 C 7 -3.605469 7.042969 -3.707031 7.042969 -3.828125 L 7.042969 -4.910156 L 11.785156 -4.910156 C 12 -4.910156 12.109375 -5.023438 12.109375 -5.246094 C 12.101562 -5.464844 11.984375 -5.574219 11.757812 -5.574219 M 9.871094 -3.449219 L 2.644531 -3.449219 C 2.382812 -3.449219 2.25 -3.34375 2.238281 -3.125 C 2.238281 -2.898438 2.371094 -2.785156 2.628906 -2.785156 L 9.777344 -2.785156 C 9.960938 -2.785156 10.089844 -2.757812 10.167969 -2.695312 C 10.246094 -2.632812 10.285156 -2.53125 10.285156 -2.382812 L 10.285156 -2.121094 C 10.285156 -2.007812 10.242188 -1.925781 10.15625 -1.875 C 10.078125 -1.832031 9.960938 -1.808594 9.804688 -1.808594 L 3.269531 -1.808594 C 2.945312 -1.808594 2.699219 -1.722656 2.527344 -1.550781 C 2.351562 -1.375 2.265625 -1.144531 2.265625 -0.859375 L 2.265625 -0.363281 C 2.265625 -0.09375 2.347656 0.117188 2.511719 0.273438 C 2.679688 0.4375 2.90625 0.519531 3.203125 0.519531 L 10.859375 0.519531 C 10.972656 0.519531 11.058594 0.484375 11.121094 0.417969 C 11.179688 0.347656 11.210938 0.269531 11.210938 0.183594 C 11.203125 0.09375 11.167969 0.015625 11.105469 -0.0507812 C 11.027344 -0.113281 10.929688 -0.144531 10.808594 -0.144531 L 3.488281 -0.144531 C 3.332031 -0.144531 3.21875 -0.167969 3.152344 -0.222656 C 3.082031 -0.273438 3.046875 -0.363281 3.046875 -0.496094 L 3.046875 -0.730469 C 3.046875 -0.867188 3.078125 -0.972656 3.136719 -1.042969 C 3.207031 -1.109375 3.328125 -1.144531 3.503906 -1.144531 L 10.105469 -1.144531 C 10.382812 -1.144531 10.613281 -1.234375 10.792969 -1.40625 C 10.976562 -1.578125 11.066406 -1.792969 11.066406 -2.042969 L 11.066406 -2.589844 C 11.066406 -2.851562 10.945312 -3.0625 10.703125 -3.230469 C 10.476562 -3.375 10.199219 -3.449219 9.871094 -3.449219 Z "/>
</g>
<g id="glyph-0-2">
<path d="M 5.792969 -9.832031 L 1.941406 -9.832031 C 1.695312 -9.832031 1.578125 -9.722656 1.589844 -9.503906 C 1.589844 -9.28125 1.710938 -9.167969 1.953125 -9.167969 L 5.820312 -9.167969 C 6.019531 -9.167969 6.175781 -9.117188 6.289062 -9.023438 C 6.394531 -8.929688 6.445312 -8.789062 6.445312 -8.605469 L 6.445312 -7.082031 C 6.445312 -5.25 6.011719 -3.832031 5.144531 -2.824219 C 4.34375 -1.898438 3.199219 -1.355469 1.707031 -1.199219 C 1.460938 -1.179688 1.351562 -1.0625 1.367188 -0.847656 C 1.382812 -0.621094 1.515625 -0.515625 1.757812 -0.535156 C 3.355469 -0.636719 4.640625 -1.234375 5.613281 -2.316406 C 6.664062 -3.480469 7.1875 -5.0625 7.1875 -7.058594 L 7.1875 -8.59375 C 7.1875 -8.976562 7.066406 -9.273438 6.824219 -9.492188 C 6.570312 -9.71875 6.226562 -9.832031 5.792969 -9.832031 M 10.46875 -5.105469 L 10.46875 -9.871094 C 10.46875 -9.984375 10.425781 -10.074219 10.339844 -10.144531 C 10.269531 -10.195312 10.183594 -10.222656 10.078125 -10.222656 C 9.972656 -10.222656 9.886719 -10.195312 9.816406 -10.144531 C 9.738281 -10.074219 9.699219 -9.984375 9.699219 -9.871094 L 9.699219 0.285156 C 9.699219 0.398438 9.738281 0.492188 9.816406 0.558594 C 9.886719 0.628906 9.972656 0.664062 10.078125 0.664062 C 10.183594 0.664062 10.269531 0.628906 10.339844 0.558594 C 10.425781 0.492188 10.46875 0.398438 10.46875 0.285156 L 10.46875 -4.464844 L 11.914062 -4.464844 C 12.121094 -4.464844 12.226562 -4.574219 12.226562 -4.792969 C 12.226562 -5 12.121094 -5.105469 11.914062 -5.105469 Z "/>
</g>
<g id="glyph-0-3">
</g>
<g id="glyph-0-4">
<path d="M 7.839844 -9.832031 L 1.941406 -9.832031 C 1.695312 -9.832031 1.574219 -9.722656 1.574219 -9.503906 C 1.574219 -9.28125 1.695312 -9.167969 1.941406 -9.167969 L 7.839844 -9.167969 C 8.089844 -9.167969 8.214844 -9.28125 8.214844 -9.503906 C 8.214844 -9.722656 8.089844 -9.832031 7.839844 -9.832031 M 2.746094 -8.097656 C 2.746094 -7.125 2.78125 -5.964844 2.851562 -4.609375 C 2.929688 -3.210938 3.023438 -2.046875 3.136719 -1.121094 L 1.589844 -1.105469 C 1.335938 -1.105469 1.210938 -1 1.210938 -0.78125 C 1.210938 -0.554688 1.335938 -0.441406 1.589844 -0.441406 C 3.003906 -0.441406 4.304688 -0.5 5.496094 -0.613281 C 6.789062 -0.734375 7.804688 -0.90625 8.542969 -1.132812 C 8.65625 -1.160156 8.738281 -1.214844 8.789062 -1.300781 C 8.839844 -1.378906 8.859375 -1.460938 8.839844 -1.550781 C 8.824219 -1.644531 8.777344 -1.714844 8.699219 -1.757812 C 8.609375 -1.808594 8.507812 -1.8125 8.386719 -1.769531 C 8.21875 -1.726562 8.03125 -1.679688 7.8125 -1.628906 C 7.671875 -1.601562 7.460938 -1.558594 7.175781 -1.496094 L 6.730469 -1.40625 C 6.851562 -2.222656 6.949219 -3.292969 7.019531 -4.621094 C 7.085938 -5.828125 7.121094 -7.003906 7.121094 -8.152344 C 7.121094 -8.375 7 -8.488281 6.757812 -8.488281 C 6.515625 -8.488281 6.394531 -8.375 6.394531 -8.152344 C 6.394531 -7.003906 6.359375 -5.816406 6.289062 -4.582031 C 6.21875 -3.253906 6.128906 -2.15625 6.015625 -1.289062 C 5.609375 -1.253906 5.242188 -1.226562 4.921875 -1.210938 C 4.515625 -1.175781 4.175781 -1.160156 3.90625 -1.160156 C 3.785156 -2.070312 3.683594 -3.238281 3.605469 -4.660156 C 3.546875 -5.953125 3.515625 -7.101562 3.515625 -8.097656 C 3.515625 -8.210938 3.472656 -8.304688 3.386719 -8.371094 C 3.316406 -8.425781 3.230469 -8.449219 3.125 -8.449219 C 3.019531 -8.449219 2.933594 -8.425781 2.863281 -8.371094 C 2.785156 -8.304688 2.746094 -8.210938 2.746094 -8.097656 M 10.46875 -5.105469 L 10.46875 -9.871094 C 10.46875 -9.984375 10.425781 -10.074219 10.339844 -10.144531 C 10.269531 -10.195312 10.183594 -10.222656 10.078125 -10.222656 C 9.972656 -10.222656 9.886719 -10.195312 9.816406 -10.144531 C 9.738281 -10.074219 9.699219 -9.984375 9.699219 -9.871094 L 9.699219 0.285156 C 9.699219 0.398438 9.738281 0.492188 9.816406 0.558594 C 9.886719 0.628906 9.972656 0.664062 10.078125 0.664062 C 10.183594 0.664062 10.269531 0.628906 10.339844 0.558594 C 10.425781 0.492188 10.46875 0.398438 10.46875 0.285156 L 10.46875 -4.464844 L 11.914062 -4.464844 C 12.121094 -4.464844 12.226562 -4.574219 12.226562 -4.792969 C 12.226562 -5 12.121094 -5.105469 11.914062 -5.105469 Z "/>
</g>
<g id="glyph-0-5">
<path d="M 9.609375 -10.027344 L 2.460938 -10.027344 C 2.226562 -10.027344 2.109375 -9.914062 2.109375 -9.6875 C 2.109375 -9.460938 2.226562 -9.347656 2.460938 -9.347656 L 9.492188 -9.347656 C 9.734375 -9.347656 9.925781 -9.292969 10.066406 -9.179688 C 10.210938 -9.058594 10.285156 -8.894531 10.285156 -8.683594 L 10.285156 -8.152344 C 10.285156 -7.605469 10.242188 -7.148438 10.15625 -6.785156 C 10.042969 -6.316406 9.835938 -5.835938 9.53125 -5.351562 L 10.3125 -5.351562 C 10.574219 -5.785156 10.769531 -6.242188 10.898438 -6.71875 C 11.011719 -7.152344 11.066406 -7.621094 11.066406 -8.125 L 11.066406 -8.75 C 11.066406 -9.15625 10.933594 -9.476562 10.664062 -9.699219 C 10.402344 -9.917969 10.050781 -10.027344 9.609375 -10.027344 M 11.71875 -5.808594 L 1.613281 -5.808594 C 1.363281 -5.808594 1.234375 -5.699219 1.222656 -5.480469 C 1.207031 -5.257812 1.316406 -5.144531 1.550781 -5.144531 L 11.730469 -5.144531 C 11.84375 -5.144531 11.9375 -5.179688 12.003906 -5.246094 C 12.074219 -5.316406 12.109375 -5.394531 12.109375 -5.480469 C 12.109375 -5.570312 12.074219 -5.648438 12.003906 -5.714844 C 11.9375 -5.777344 11.839844 -5.808594 11.71875 -5.808594 M 10.285156 -3.28125 L 10.285156 -2.238281 L 3.046875 -2.238281 L 3.046875 -3.28125 C 3.046875 -3.402344 3.003906 -3.5 2.917969 -3.566406 C 2.847656 -3.628906 2.761719 -3.660156 2.65625 -3.660156 C 2.542969 -3.660156 2.453125 -3.628906 2.382812 -3.566406 C 2.304688 -3.5 2.265625 -3.402344 2.265625 -3.28125 L 2.265625 -0.429688 C 2.265625 -0.152344 2.347656 0.0742188 2.511719 0.246094 C 2.695312 0.429688 2.933594 0.519531 3.230469 0.519531 L 10.039062 0.519531 C 10.359375 0.519531 10.617188 0.429688 10.808594 0.246094 C 10.980469 0.0742188 11.066406 -0.148438 11.066406 -0.417969 L 11.066406 -3.28125 C 11.066406 -3.402344 11.023438 -3.5 10.9375 -3.566406 C 10.867188 -3.628906 10.78125 -3.660156 10.675781 -3.660156 C 10.5625 -3.660156 10.472656 -3.628906 10.402344 -3.566406 C 10.324219 -3.5 10.285156 -3.402344 10.285156 -3.28125 M 10.285156 -1.5625 L 10.285156 -0.574219 C 10.285156 -0.40625 10.25 -0.296875 10.183594 -0.234375 C 10.121094 -0.171875 9.996094 -0.144531 9.804688 -0.144531 L 3.527344 -0.144531 C 3.347656 -0.144531 3.21875 -0.183594 3.152344 -0.261719 C 3.082031 -0.320312 3.046875 -0.425781 3.046875 -0.574219 L 3.046875 -1.5625 Z "/>
</g>
<g id="glyph-0-6">
<path d="M 11.066406 -8.175781 L 2.277344 -8.175781 C 2.035156 -8.175781 1.914062 -8.070312 1.914062 -7.851562 C 1.914062 -7.625 2.035156 -7.511719 2.277344 -7.511719 L 11.105469 -7.511719 C 11.324219 -7.511719 11.429688 -7.625 11.417969 -7.851562 C 11.410156 -8.070312 11.292969 -8.175781 11.066406 -8.175781 M 9.035156 -9.882812 L 4.308594 -9.882812 C 4.066406 -9.882812 3.945312 -9.769531 3.945312 -9.542969 C 3.945312 -9.320312 4.066406 -9.207031 4.308594 -9.207031 L 9.089844 -9.207031 C 9.296875 -9.207031 9.398438 -9.320312 9.386719 -9.542969 C 9.378906 -9.769531 9.261719 -9.882812 9.035156 -9.882812 M 6.667969 -6.5625 C 5.375 -6.5625 4.351562 -6.34375 3.605469 -5.910156 C 2.9375 -5.519531 2.605469 -5.03125 2.605469 -4.441406 C 2.605469 -3.839844 2.9375 -3.34375 3.605469 -2.941406 C 4.34375 -2.507812 5.363281 -2.292969 6.667969 -2.292969 C 7.960938 -2.292969 8.976562 -2.507812 9.714844 -2.941406 C 10.398438 -3.34375 10.742188 -3.839844 10.742188 -4.441406 C 10.742188 -5.03125 10.398438 -5.519531 9.714844 -5.910156 C 8.96875 -6.34375 7.953125 -6.5625 6.667969 -6.5625 M 6.667969 -5.886719 C 7.726562 -5.886719 8.550781 -5.742188 9.140625 -5.457031 C 9.6875 -5.195312 9.960938 -4.855469 9.960938 -4.441406 C 9.960938 -4.023438 9.6875 -3.679688 9.140625 -3.410156 C 8.550781 -3.117188 7.726562 -2.96875 6.667969 -2.96875 C 5.597656 -2.96875 4.769531 -3.117188 4.179688 -3.410156 C 3.640625 -3.679688 3.371094 -4.023438 3.371094 -4.441406 C 3.371094 -4.855469 3.640625 -5.195312 4.179688 -5.457031 C 4.769531 -5.742188 5.597656 -5.886719 6.667969 -5.886719 M 3.972656 -2.355469 L 3.972656 -0.898438 L 1.613281 -0.898438 C 1.492188 -0.898438 1.398438 -0.867188 1.328125 -0.808594 C 1.265625 -0.738281 1.234375 -0.660156 1.222656 -0.574219 C 1.214844 -0.484375 1.238281 -0.40625 1.289062 -0.339844 C 1.339844 -0.269531 1.414062 -0.234375 1.511719 -0.234375 L 11.730469 -0.234375 C 11.84375 -0.234375 11.9375 -0.269531 12.003906 -0.339844 C 12.074219 -0.40625 12.109375 -0.484375 12.109375 -0.574219 C 12.109375 -0.660156 12.074219 -0.738281 12.003906 -0.808594 C 11.9375 -0.867188 11.839844 -0.898438 11.71875 -0.898438 L 9.375 -0.898438 L 9.375 -2.394531 C 9.375 -2.628906 9.246094 -2.746094 8.984375 -2.746094 C 8.722656 -2.746094 8.59375 -2.628906 8.59375 -2.394531 L 8.59375 -0.898438 L 4.753906 -0.898438 L 4.753906 -2.34375 C 4.753906 -2.464844 4.710938 -2.5625 4.621094 -2.628906 C 4.554688 -2.699219 4.464844 -2.734375 4.363281 -2.734375 C 4.25 -2.734375 4.15625 -2.703125 4.089844 -2.644531 C 4.011719 -2.574219 3.972656 -2.476562 3.972656 -2.355469 Z "/>
</g>
<g id="glyph-0-7">
<path d="M 6.796875 -9.832031 L 2.058594 -9.832031 C 1.824219 -9.832031 1.707031 -9.722656 1.707031 -9.503906 C 1.707031 -9.28125 1.820312 -9.167969 2.042969 -9.167969 L 6.746094 -9.167969 C 6.945312 -9.167969 7.105469 -9.117188 7.226562 -9.023438 C 7.347656 -8.929688 7.410156 -8.792969 7.410156 -8.621094 L 7.410156 -6.027344 C 7.410156 -5.34375 7.355469 -4.757812 7.253906 -4.269531 C 7.140625 -3.742188 6.960938 -3.289062 6.71875 -2.917969 C 6.640625 -2.804688 6.617188 -2.695312 6.652344 -2.589844 C 6.6875 -2.503906 6.757812 -2.433594 6.863281 -2.382812 C 6.957031 -2.332031 7.058594 -2.316406 7.160156 -2.34375 C 7.273438 -2.371094 7.367188 -2.433594 7.433594 -2.539062 C 7.667969 -2.972656 7.851562 -3.5 7.980469 -4.113281 C 8.101562 -4.703125 8.164062 -5.347656 8.164062 -6.042969 L 8.164062 -8.671875 C 8.164062 -9.019531 8.046875 -9.296875 7.8125 -9.503906 C 7.570312 -9.722656 7.230469 -9.832031 6.796875 -9.832031 M 4.074219 -5.792969 L 4.074219 -0.976562 C 3.695312 -0.96875 3.242188 -0.960938 2.722656 -0.949219 C 2.261719 -0.941406 1.847656 -0.9375 1.484375 -0.9375 C 1.363281 -0.9375 1.261719 -0.902344 1.183594 -0.832031 C 1.125 -0.773438 1.09375 -0.695312 1.09375 -0.597656 C 1.09375 -0.511719 1.132812 -0.4375 1.210938 -0.378906 C 1.289062 -0.300781 1.402344 -0.261719 1.550781 -0.261719 C 3.207031 -0.261719 4.625 -0.335938 5.808594 -0.480469 C 7.058594 -0.628906 8.113281 -0.867188 8.972656 -1.199219 C 9.066406 -1.25 9.132812 -1.320312 9.167969 -1.40625 C 9.203125 -1.5 9.203125 -1.59375 9.167969 -1.679688 C 9.132812 -1.765625 9.070312 -1.828125 8.984375 -1.863281 C 8.890625 -1.898438 8.777344 -1.886719 8.644531 -1.835938 C 8.109375 -1.617188 7.472656 -1.441406 6.746094 -1.300781 C 6.109375 -1.171875 5.460938 -1.082031 4.792969 -1.027344 L 4.792969 -5.792969 C 4.792969 -5.914062 4.753906 -6.011719 4.675781 -6.082031 C 4.605469 -6.148438 4.523438 -6.183594 4.425781 -6.183594 C 4.332031 -6.183594 4.25 -6.148438 4.179688 -6.082031 C 4.109375 -6.011719 4.074219 -5.914062 4.074219 -5.792969 M 10.46875 -5.144531 L 10.46875 -9.894531 C 10.46875 -10.128906 10.339844 -10.246094 10.078125 -10.246094 C 9.828125 -10.246094 9.699219 -10.128906 9.699219 -9.894531 L 9.699219 0.273438 C 9.699219 0.394531 9.738281 0.492188 9.816406 0.558594 C 9.886719 0.628906 9.972656 0.664062 10.078125 0.664062 C 10.183594 0.664062 10.269531 0.628906 10.339844 0.558594 C 10.425781 0.492188 10.46875 0.398438 10.46875 0.289062 L 10.46875 -4.503906 L 11.925781 -4.503906 C 12.144531 -4.503906 12.25 -4.613281 12.238281 -4.832031 C 12.238281 -5.039062 12.125 -5.144531 11.898438 -5.144531 Z "/>
</g>
<g id="glyph-0-8">
<path d="M 4.324219 -9.636719 C 4.324219 -8.90625 4.101562 -8.097656 3.660156 -7.214844 C 3.121094 -6.136719 2.394531 -5.285156 1.484375 -4.660156 C 1.363281 -4.582031 1.292969 -4.492188 1.277344 -4.386719 C 1.257812 -4.285156 1.28125 -4.191406 1.339844 -4.113281 C 1.394531 -4.027344 1.46875 -3.980469 1.5625 -3.972656 C 1.667969 -3.953125 1.769531 -3.980469 1.875 -4.050781 C 2.535156 -4.5625 3.074219 -5.078125 3.488281 -5.597656 C 3.855469 -6.050781 4.207031 -6.628906 4.542969 -7.332031 C 5.152344 -6.878906 5.679688 -6.429688 6.132812 -5.976562 C 6.601562 -5.507812 7.042969 -4.992188 7.460938 -4.425781 C 7.539062 -4.324219 7.632812 -4.261719 7.746094 -4.246094 C 7.84375 -4.226562 7.933594 -4.25 8.019531 -4.308594 C 8.097656 -4.371094 8.148438 -4.449219 8.164062 -4.542969 C 8.171875 -4.65625 8.136719 -4.769531 8.058594 -4.882812 C 7.574219 -5.515625 7.105469 -6.050781 6.652344 -6.484375 C 6.167969 -6.945312 5.542969 -7.449219 4.777344 -7.996094 C 4.875 -8.289062 4.945312 -8.546875 4.988281 -8.761719 C 5.054688 -9.066406 5.089844 -9.359375 5.089844 -9.636719 C 5.089844 -9.765625 5.046875 -9.867188 4.960938 -9.933594 C 4.890625 -9.996094 4.804688 -10.027344 4.699219 -10.027344 C 4.597656 -10.027344 4.507812 -9.996094 4.441406 -9.933594 C 4.363281 -9.867188 4.324219 -9.765625 4.324219 -9.636719 M 10.859375 -4.6875 L 10.859375 -9.871094 C 10.859375 -9.984375 10.816406 -10.070312 10.730469 -10.128906 C 10.660156 -10.191406 10.574219 -10.222656 10.46875 -10.222656 C 10.355469 -10.222656 10.265625 -10.191406 10.195312 -10.128906 C 10.117188 -10.0625 10.078125 -9.96875 10.078125 -9.859375 L 10.078125 -4.6875 C 10.078125 -4.566406 10.117188 -4.464844 10.195312 -4.386719 C 10.265625 -4.320312 10.355469 -4.285156 10.46875 -4.285156 C 10.574219 -4.285156 10.660156 -4.320312 10.730469 -4.386719 C 10.816406 -4.464844 10.859375 -4.566406 10.859375 -4.6875 M 10.078125 -2.277344 L 10.078125 -0.730469 C 10.078125 -0.582031 10.03125 -0.472656 9.933594 -0.402344 C 9.847656 -0.34375 9.703125 -0.3125 9.503906 -0.3125 L 3.867188 -0.3125 C 3.640625 -0.3125 3.484375 -0.347656 3.398438 -0.417969 C 3.320312 -0.484375 3.28125 -0.609375 3.28125 -0.78125 L 3.28125 -2.253906 C 3.28125 -2.417969 3.316406 -2.535156 3.386719 -2.605469 C 3.472656 -2.683594 3.621094 -2.722656 3.828125 -2.722656 L 9.492188 -2.722656 C 9.699219 -2.722656 9.847656 -2.691406 9.933594 -2.628906 C 10.03125 -2.5625 10.078125 -2.445312 10.078125 -2.277344 M 9.675781 -3.386719 L 3.554688 -3.386719 C 3.234375 -3.386719 2.976562 -3.292969 2.785156 -3.113281 C 2.59375 -2.929688 2.5 -2.699219 2.5 -2.421875 L 2.5 -0.714844 C 2.5 -0.367188 2.589844 -0.109375 2.773438 0.0664062 C 2.972656 0.257812 3.289062 0.351562 3.722656 0.351562 L 9.726562 0.351562 C 10.074219 0.351562 10.347656 0.269531 10.546875 0.105469 C 10.753906 -0.0703125 10.859375 -0.320312 10.859375 -0.652344 L 10.859375 -2.472656 C 10.859375 -2.75 10.753906 -2.972656 10.546875 -3.136719 C 10.328125 -3.304688 10.039062 -3.386719 9.675781 -3.386719 Z "/>
</g>
<g id="glyph-0-9">
<path d="M 5.886719 -9.84375 L 2.160156 -9.84375 C 1.882812 -9.84375 1.746094 -9.734375 1.746094 -9.519531 C 1.734375 -9.300781 1.867188 -9.191406 2.136719 -9.191406 L 5.636719 -9.191406 C 5.898438 -9.191406 6.089844 -9.152344 6.210938 -9.074219 C 6.332031 -8.988281 6.394531 -8.859375 6.394531 -8.683594 L 6.394531 -6.457031 C 6.394531 -6.265625 6.351562 -6.140625 6.261719 -6.082031 C 6.183594 -6.011719 6.039062 -5.976562 5.820312 -5.976562 L 3.019531 -5.976562 C 2.640625 -5.976562 2.339844 -5.863281 2.121094 -5.636719 C 1.914062 -5.421875 1.808594 -5.132812 1.808594 -4.777344 L 1.808594 -1.707031 C 1.808594 -1.316406 1.910156 -1.007812 2.109375 -0.78125 C 2.328125 -0.539062 2.652344 -0.417969 3.085938 -0.417969 C 4.128906 -0.417969 5.125 -0.496094 6.082031 -0.652344 C 7.15625 -0.816406 8.054688 -1.058594 8.777344 -1.378906 C 8.992188 -1.492188 9.054688 -1.65625 8.957031 -1.875 C 8.871094 -2.09375 8.714844 -2.140625 8.488281 -2.019531 C 7.855469 -1.730469 7.085938 -1.507812 6.183594 -1.339844 C 5.246094 -1.167969 4.28125 -1.082031 3.28125 -1.082031 C 3.019531 -1.082031 2.839844 -1.136719 2.734375 -1.25 C 2.628906 -1.34375 2.578125 -1.515625 2.578125 -1.757812 L 2.578125 -4.675781 C 2.578125 -4.898438 2.617188 -5.0625 2.695312 -5.15625 C 2.78125 -5.25 2.933594 -5.300781 3.152344 -5.300781 L 5.925781 -5.300781 C 6.332031 -5.300781 6.636719 -5.390625 6.835938 -5.574219 C 7.035156 -5.746094 7.136719 -6 7.136719 -6.328125 L 7.136719 -8.855469 C 7.136719 -9.175781 7.023438 -9.421875 6.796875 -9.597656 C 6.570312 -9.761719 6.265625 -9.84375 5.886719 -9.84375 M 10.859375 0.261719 L 10.859375 -9.871094 C 10.859375 -9.984375 10.816406 -10.074219 10.730469 -10.144531 C 10.660156 -10.195312 10.574219 -10.222656 10.46875 -10.222656 C 10.355469 -10.222656 10.265625 -10.195312 10.195312 -10.144531 C 10.117188 -10.074219 10.078125 -9.984375 10.078125 -9.871094 L 10.078125 0.261719 C 10.078125 0.382812 10.117188 0.480469 10.195312 0.558594 C 10.265625 0.628906 10.355469 0.664062 10.46875 0.664062 C 10.574219 0.664062 10.660156 0.628906 10.730469 0.558594 C 10.816406 0.480469 10.859375 0.382812 10.859375 0.261719 Z "/>
</g>
<g id="glyph-0-10">
<path d="M 8.085938 -9.921875 L 2.175781 -9.921875 C 1.929688 -9.921875 1.808594 -9.8125 1.808594 -9.597656 C 1.800781 -9.371094 1.917969 -9.257812 2.160156 -9.257812 L 4.738281 -9.257812 L 4.738281 -8.828125 C 4.738281 -7.917969 4.441406 -7.136719 3.839844 -6.484375 C 3.347656 -5.945312 2.632812 -5.484375 1.707031 -5.105469 C 1.59375 -5.0625 1.519531 -4.992188 1.484375 -4.894531 C 1.457031 -4.808594 1.46875 -4.722656 1.511719 -4.636719 C 1.5625 -4.539062 1.632812 -4.476562 1.71875 -4.441406 C 1.8125 -4.398438 1.917969 -4.390625 2.03125 -4.425781 C 2.8125 -4.730469 3.476562 -5.132812 4.023438 -5.636719 C 4.554688 -6.140625 4.917969 -6.683594 5.117188 -7.265625 C 5.265625 -6.753906 5.636719 -6.238281 6.238281 -5.714844 C 6.792969 -5.238281 7.425781 -4.847656 8.136719 -4.542969 C 8.257812 -4.492188 8.375 -4.484375 8.488281 -4.519531 C 8.59375 -4.554688 8.671875 -4.617188 8.722656 -4.714844 C 8.765625 -4.808594 8.777344 -4.90625 8.75 -5 C 8.714844 -5.09375 8.640625 -5.164062 8.527344 -5.207031 C 7.660156 -5.554688 6.976562 -5.988281 6.472656 -6.511719 C 5.828125 -7.171875 5.507812 -7.953125 5.507812 -8.855469 L 5.507812 -9.257812 L 8.085938 -9.257812 C 8.304688 -9.257812 8.410156 -9.371094 8.410156 -9.597656 C 8.410156 -9.8125 8.304688 -9.921875 8.085938 -9.921875 M 10.859375 -4.6875 L 10.859375 -9.84375 C 10.859375 -9.964844 10.816406 -10.0625 10.730469 -10.128906 C 10.660156 -10.191406 10.574219 -10.222656 10.46875 -10.222656 C 10.355469 -10.222656 10.265625 -10.1875 10.195312 -10.117188 C 10.117188 -10.046875 10.078125 -9.953125 10.078125 -9.832031 L 10.078125 -7.578125 L 7.851562 -7.578125 C 7.730469 -7.578125 7.640625 -7.546875 7.578125 -7.488281 C 7.515625 -7.417969 7.488281 -7.339844 7.488281 -7.253906 C 7.496094 -7.164062 7.535156 -7.085938 7.605469 -7.019531 C 7.683594 -6.949219 7.785156 -6.914062 7.917969 -6.914062 L 10.078125 -6.914062 L 10.078125 -4.6875 C 10.078125 -4.566406 10.117188 -4.464844 10.195312 -4.386719 C 10.265625 -4.320312 10.355469 -4.285156 10.46875 -4.285156 C 10.574219 -4.285156 10.660156 -4.320312 10.730469 -4.386719 C 10.816406 -4.464844 10.859375 -4.566406 10.859375 -4.6875 M 9.609375 -2.980469 L 2.472656 -2.980469 C 2.230469 -2.980469 2.113281 -2.867188 2.121094 -2.644531 C 2.121094 -2.417969 2.238281 -2.304688 2.472656 -2.304688 L 9.542969 -2.304688 C 9.734375 -2.304688 9.875 -2.265625 9.960938 -2.1875 C 10.039062 -2.117188 10.078125 -2 10.078125 -1.835938 L 10.078125 0.273438 C 10.078125 0.394531 10.117188 0.496094 10.195312 0.574219 C 10.265625 0.632812 10.355469 0.664062 10.46875 0.664062 C 10.574219 0.664062 10.660156 0.632812 10.730469 0.574219 C 10.816406 0.496094 10.859375 0.394531 10.859375 0.273438 L 10.859375 -1.863281 C 10.859375 -2.210938 10.75 -2.484375 10.535156 -2.683594 C 10.316406 -2.882812 10.007812 -2.980469 9.609375 -2.980469 Z "/>
</g>
<g id="glyph-0-11">
<path d="M 4.648438 -10 C 3.703125 -10 2.953125 -9.726562 2.394531 -9.179688 C 1.902344 -8.675781 1.652344 -8.050781 1.652344 -7.304688 C 1.652344 -6.574219 1.902344 -5.964844 2.394531 -5.46875 C 2.953125 -4.921875 3.703125 -4.648438 4.648438 -4.648438 C 5.585938 -4.648438 6.324219 -4.921875 6.863281 -5.46875 C 7.355469 -5.964844 7.605469 -6.574219 7.605469 -7.304688 C 7.605469 -8.050781 7.355469 -8.675781 6.863281 -9.179688 C 6.316406 -9.726562 5.578125 -10 4.648438 -10 M 4.648438 -9.324219 C 5.351562 -9.324219 5.902344 -9.117188 6.300781 -8.710938 C 6.667969 -8.347656 6.847656 -7.878906 6.847656 -7.304688 C 6.847656 -6.75 6.667969 -6.285156 6.300781 -5.910156 C 5.902344 -5.496094 5.351562 -5.285156 4.648438 -5.285156 C 3.929688 -5.285156 3.367188 -5.496094 2.96875 -5.910156 C 2.613281 -6.285156 2.433594 -6.75 2.433594 -7.304688 C 2.433594 -7.878906 2.613281 -8.347656 2.96875 -8.710938 C 3.367188 -9.117188 3.929688 -9.324219 4.648438 -9.324219 M 10.859375 -3.90625 L 10.859375 -9.871094 C 10.859375 -9.984375 10.816406 -10.070312 10.730469 -10.128906 C 10.660156 -10.191406 10.574219 -10.222656 10.46875 -10.222656 C 10.355469 -10.222656 10.265625 -10.191406 10.195312 -10.128906 C 10.117188 -10.0625 10.078125 -9.972656 10.078125 -9.859375 L 10.078125 -8.503906 L 7.851562 -8.503906 C 7.722656 -8.503906 7.621094 -8.46875 7.550781 -8.398438 C 7.492188 -8.335938 7.460938 -8.257812 7.460938 -8.164062 C 7.46875 -8.078125 7.507812 -8.003906 7.578125 -7.941406 C 7.664062 -7.863281 7.777344 -7.824219 7.917969 -7.824219 L 10.078125 -7.824219 L 10.078125 -6.25 L 7.878906 -6.25 C 7.746094 -6.25 7.644531 -6.214844 7.566406 -6.144531 C 7.503906 -6.085938 7.472656 -6.007812 7.472656 -5.910156 C 7.472656 -5.824219 7.507812 -5.75 7.578125 -5.691406 C 7.65625 -5.613281 7.761719 -5.574219 7.890625 -5.574219 L 10.078125 -5.574219 L 10.078125 -3.90625 C 10.078125 -3.777344 10.117188 -3.671875 10.195312 -3.59375 C 10.265625 -3.523438 10.355469 -3.488281 10.46875 -3.488281 C 10.574219 -3.488281 10.660156 -3.523438 10.730469 -3.59375 C 10.816406 -3.671875 10.859375 -3.777344 10.859375 -3.90625 M 6.667969 -3.28125 C 5.242188 -3.28125 4.152344 -3.085938 3.398438 -2.695312 C 2.722656 -2.347656 2.382812 -1.875 2.382812 -1.277344 C 2.382812 -0.703125 2.722656 -0.242188 3.398438 0.105469 C 4.152344 0.496094 5.242188 0.691406 6.667969 0.691406 C 8.089844 0.691406 9.175781 0.496094 9.921875 0.105469 C 10.609375 -0.242188 10.949219 -0.703125 10.949219 -1.277344 C 10.949219 -1.875 10.609375 -2.347656 9.921875 -2.695312 C 9.175781 -3.085938 8.089844 -3.28125 6.667969 -3.28125 M 6.667969 -2.605469 C 7.847656 -2.605469 8.742188 -2.484375 9.347656 -2.238281 C 9.914062 -2.003906 10.195312 -1.683594 10.195312 -1.277344 C 10.195312 -0.886719 9.914062 -0.578125 9.347656 -0.351562 C 8.742188 -0.101562 7.847656 0.0273438 6.667969 0.0273438 C 5.476562 0.0273438 4.578125 -0.101562 3.972656 -0.351562 C 3.414062 -0.578125 3.136719 -0.886719 3.136719 -1.277344 C 3.136719 -1.683594 3.414062 -2.003906 3.972656 -2.238281 C 4.578125 -2.484375 5.476562 -2.605469 6.667969 -2.605469 Z "/>
</g>
<g id="glyph-0-12">
<path d="M 6.550781 -10.078125 L 3.136719 -10.078125 C 2.894531 -10.078125 2.773438 -9.96875 2.773438 -9.753906 C 2.773438 -9.527344 2.894531 -9.414062 3.136719 -9.414062 L 6.574219 -9.414062 C 6.808594 -9.414062 6.921875 -9.527344 6.914062 -9.753906 C 6.914062 -9.96875 6.792969 -10.078125 6.550781 -10.078125 M 7.929688 -8.566406 L 1.730469 -8.566406 C 1.488281 -8.566406 1.367188 -8.460938 1.367188 -8.242188 C 1.367188 -8.015625 1.488281 -7.902344 1.730469 -7.902344 L 7.957031 -7.902344 C 8.070312 -7.902344 8.160156 -7.9375 8.230469 -8.007812 C 8.289062 -8.078125 8.320312 -8.15625 8.320312 -8.242188 C 8.320312 -8.328125 8.285156 -8.40625 8.214844 -8.476562 C 8.148438 -8.539062 8.050781 -8.566406 7.929688 -8.566406 M 4.882812 -7.316406 C 3.910156 -7.316406 3.140625 -7.136719 2.578125 -6.769531 C 2.066406 -6.441406 1.808594 -6.03125 1.808594 -5.546875 C 1.808594 -5.085938 2.066406 -4.6875 2.578125 -4.347656 C 3.152344 -3.976562 3.917969 -3.789062 4.882812 -3.789062 C 5.828125 -3.789062 6.589844 -3.976562 7.160156 -4.347656 C 7.671875 -4.6875 7.929688 -5.085938 7.929688 -5.546875 C 7.929688 -6.03125 7.671875 -6.441406 7.160156 -6.769531 C 6.589844 -7.136719 5.828125 -7.316406 4.882812 -7.316406 M 4.882812 -6.667969 C 5.59375 -6.667969 6.164062 -6.554688 6.589844 -6.328125 C 6.96875 -6.109375 7.160156 -5.851562 7.160156 -5.546875 C 7.160156 -5.25 6.96875 -5.003906 6.589844 -4.804688 C 6.171875 -4.578125 5.601562 -4.464844 4.882812 -4.464844 C 4.152344 -4.464844 3.578125 -4.578125 3.152344 -4.804688 C 2.769531 -5.003906 2.578125 -5.25 2.578125 -5.546875 C 2.578125 -5.851562 2.769531 -6.109375 3.152344 -6.328125 C 3.585938 -6.554688 4.164062 -6.667969 4.882812 -6.667969 M 10.46875 -8.28125 L 10.46875 -9.886719 C 10.46875 -10.109375 10.339844 -10.222656 10.078125 -10.222656 C 9.828125 -10.222656 9.699219 -10.105469 9.699219 -9.871094 L 9.699219 -3.90625 C 9.699219 -3.785156 9.738281 -3.683594 9.816406 -3.605469 C 9.886719 -3.539062 9.972656 -3.503906 10.078125 -3.503906 C 10.183594 -3.503906 10.269531 -3.53125 10.339844 -3.59375 C 10.425781 -3.671875 10.46875 -3.773438 10.46875 -3.894531 L 10.46875 -5.089844 L 11.949219 -5.089844 C 12.152344 -5.089844 12.253906 -5.203125 12.253906 -5.429688 C 12.242188 -5.65625 12.132812 -5.769531 11.925781 -5.769531 L 10.46875 -5.769531 L 10.46875 -7.605469 L 11.925781 -7.605469 C 12.019531 -7.605469 12.101562 -7.644531 12.160156 -7.722656 C 12.214844 -7.78125 12.238281 -7.855469 12.238281 -7.941406 C 12.230469 -8.039062 12.195312 -8.117188 12.132812 -8.175781 C 12.074219 -8.246094 11.984375 -8.28125 11.871094 -8.28125 L 10.46875 -8.28125 M 6.472656 -3.125 C 5.066406 -3.125 3.992188 -2.941406 3.253906 -2.578125 C 2.578125 -2.25 2.238281 -1.792969 2.238281 -1.210938 C 2.238281 -0.648438 2.578125 -0.195312 3.253906 0.144531 C 3.992188 0.507812 5.066406 0.691406 6.472656 0.691406 C 7.867188 0.691406 8.9375 0.507812 9.675781 0.144531 C 10.351562 -0.195312 10.691406 -0.648438 10.691406 -1.210938 C 10.691406 -1.792969 10.351562 -2.25 9.675781 -2.578125 C 8.9375 -2.941406 7.867188 -3.125 6.472656 -3.125 M 6.472656 -2.472656 C 7.625 -2.472656 8.5 -2.359375 9.089844 -2.136719 C 9.644531 -1.917969 9.921875 -1.609375 9.921875 -1.210938 C 9.921875 -0.828125 9.644531 -0.535156 9.089844 -0.324219 C 8.5 -0.0898438 7.625 0.0273438 6.472656 0.0273438 C 5.300781 0.0273438 4.417969 -0.0898438 3.828125 -0.324219 C 3.28125 -0.535156 3.007812 -0.828125 3.007812 -1.210938 C 3.007812 -1.609375 3.28125 -1.917969 3.828125 -2.136719 C 4.417969 -2.359375 5.300781 -2.472656 6.472656 -2.472656 Z "/>
</g>
<g id="glyph-1-0">
</g>
<g id="glyph-1-1">
<path d="M 6.816406 0 L 0.714844 0 L 0.714844 -0.890625 C 0.832031 -1.023438 0.996094 -1.175781 1.203125 -1.34375 C 1.414062 -1.507812 1.660156 -1.691406 1.945312 -1.886719 C 2.121094 -2.003906 2.328125 -2.128906 2.570312 -2.269531 C 2.816406 -2.410156 3.089844 -2.558594 3.398438 -2.726562 C 3.742188 -2.90625 4.003906 -3.066406 4.1875 -3.207031 C 4.375 -3.34375 4.542969 -3.515625 4.695312 -3.71875 C 4.792969 -3.855469 4.875 -4.023438 4.933594 -4.222656 C 4.996094 -4.425781 5.027344 -4.714844 5.027344 -5.085938 C 5.027344 -5.628906 4.878906 -6.027344 4.589844 -6.28125 C 4.300781 -6.535156 3.925781 -6.660156 3.46875 -6.660156 C 3.1875 -6.660156 2.921875 -6.605469 2.667969 -6.492188 C 2.417969 -6.382812 2.230469 -6.230469 2.101562 -6.035156 C 2.132812 -5.894531 2.171875 -5.730469 2.21875 -5.539062 C 2.261719 -5.347656 2.285156 -5.164062 2.285156 -4.980469 C 2.285156 -4.816406 2.21875 -4.667969 2.078125 -4.539062 C 1.941406 -4.414062 1.742188 -4.347656 1.472656 -4.347656 C 1.253906 -4.347656 1.085938 -4.421875 0.96875 -4.574219 C 0.851562 -4.722656 0.792969 -4.925781 0.792969 -5.175781 C 0.792969 -5.410156 0.859375 -5.644531 0.988281 -5.882812 C 1.121094 -6.117188 1.304688 -6.335938 1.550781 -6.535156 C 1.789062 -6.730469 2.082031 -6.890625 2.433594 -7.011719 C 2.785156 -7.132812 3.167969 -7.195312 3.574219 -7.195312 C 4.464844 -7.195312 5.171875 -6.996094 5.691406 -6.597656 C 6.214844 -6.203125 6.476562 -5.671875 6.476562 -5.007812 C 6.476562 -4.691406 6.429688 -4.402344 6.335938 -4.144531 C 6.246094 -3.882812 6.09375 -3.652344 5.886719 -3.453125 C 5.65625 -3.234375 5.386719 -3.042969 5.078125 -2.886719 C 4.769531 -2.726562 4.300781 -2.507812 3.664062 -2.226562 C 3.289062 -2.054688 2.9375 -1.878906 2.609375 -1.695312 C 2.285156 -1.511719 2.019531 -1.332031 1.808594 -1.160156 L 6.816406 -1.160156 Z "/>
</g>
<g id="glyph-1-2">
<path d="M 2.976562 -5.554688 C 2.976562 -5.316406 2.886719 -5.105469 2.710938 -4.933594 C 2.535156 -4.761719 2.328125 -4.675781 2.082031 -4.675781 C 1.839844 -4.675781 1.628906 -4.761719 1.453125 -4.933594 C 1.277344 -5.105469 1.191406 -5.316406 1.191406 -5.554688 C 1.191406 -5.796875 1.277344 -6.007812 1.453125 -6.183594 C 1.625 -6.359375 1.835938 -6.445312 2.082031 -6.445312 C 2.332031 -6.445312 2.542969 -6.359375 2.714844 -6.183594 C 2.886719 -6.007812 2.976562 -5.796875 2.976562 -5.554688 M 2.976562 -0.75 C 2.976562 -0.503906 2.886719 -0.296875 2.710938 -0.125 C 2.535156 0.0429688 2.328125 0.128906 2.082031 0.128906 C 1.839844 0.128906 1.628906 0.0429688 1.453125 -0.125 C 1.277344 -0.296875 1.191406 -0.503906 1.191406 -0.75 C 1.191406 -0.992188 1.277344 -1.203125 1.453125 -1.375 C 1.628906 -1.550781 1.839844 -1.640625 2.082031 -1.640625 C 2.328125 -1.640625 2.535156 -1.550781 2.710938 -1.375 C 2.886719 -1.203125 2.976562 -0.992188 2.976562 -0.75 Z "/>
</g>
<g id="glyph-1-3">
<path d="M 7.804688 -6.925781 L 7.316406 -6.925781 C 7.226562 -7.269531 7.035156 -7.636719 6.746094 -8.027344 C 6.460938 -8.417969 6.183594 -8.632812 5.917969 -8.671875 C 5.785156 -8.6875 5.625 -8.703125 5.4375 -8.710938 C 5.253906 -8.71875 5.046875 -8.722656 4.8125 -8.722656 L 3.261719 -8.722656 L 3.261719 -5.011719 L 4.324219 -5.011719 C 4.648438 -5.011719 4.898438 -5.046875 5.074219 -5.113281 C 5.253906 -5.179688 5.40625 -5.285156 5.53125 -5.421875 C 5.621094 -5.519531 5.699219 -5.667969 5.769531 -5.867188 C 5.84375 -6.070312 5.890625 -6.285156 5.910156 -6.515625 L 6.398438 -6.515625 L 6.398438 -2.882812 L 5.910156 -2.882812 C 5.898438 -3.074219 5.855469 -3.292969 5.777344 -3.535156 C 5.703125 -3.777344 5.621094 -3.953125 5.53125 -4.0625 C 5.402344 -4.222656 5.238281 -4.332031 5.039062 -4.390625 C 4.84375 -4.449219 4.605469 -4.480469 4.324219 -4.480469 L 3.261719 -4.480469 L 3.261719 -1.300781 C 3.261719 -1.15625 3.289062 -1.03125 3.347656 -0.917969 C 3.402344 -0.804688 3.503906 -0.714844 3.644531 -0.644531 C 3.710938 -0.613281 3.851562 -0.578125 4.070312 -0.535156 C 4.285156 -0.492188 4.449219 -0.464844 4.5625 -0.460938 L 4.5625 0 L 0.558594 0 L 0.558594 -0.460938 C 0.691406 -0.472656 0.863281 -0.484375 1.082031 -0.503906 C 1.296875 -0.523438 1.4375 -0.550781 1.503906 -0.578125 C 1.632812 -0.636719 1.726562 -0.71875 1.785156 -0.828125 C 1.84375 -0.941406 1.875 -1.074219 1.875 -1.230469 L 1.875 -7.898438 C 1.875 -8.039062 1.851562 -8.167969 1.804688 -8.277344 C 1.753906 -8.390625 1.65625 -8.480469 1.503906 -8.546875 C 1.386719 -8.605469 1.230469 -8.65625 1.03125 -8.699219 C 0.835938 -8.742188 0.675781 -8.765625 0.558594 -8.777344 L 0.558594 -9.238281 L 7.804688 -9.238281 Z "/>
</g>
<g id="glyph-1-4">
<path d="M 8.097656 -8.144531 C 8.507812 -7.71875 8.824219 -7.207031 9.054688 -6.605469 C 9.285156 -6.003906 9.402344 -5.339844 9.402344 -4.609375 C 9.402344 -3.875 9.285156 -3.210938 9.050781 -2.609375 C 8.816406 -2.011719 8.488281 -1.5 8.074219 -1.082031 C 7.667969 -0.664062 7.199219 -0.34375 6.667969 -0.117188 C 6.132812 0.109375 5.5625 0.222656 4.960938 0.222656 C 4.320312 0.222656 3.726562 0.101562 3.179688 -0.140625 C 2.636719 -0.378906 2.167969 -0.714844 1.777344 -1.144531 C 1.386719 -1.566406 1.078125 -2.078125 0.855469 -2.679688 C 0.632812 -3.28125 0.519531 -3.921875 0.519531 -4.609375 C 0.519531 -5.359375 0.636719 -6.03125 0.871094 -6.617188 C 1.105469 -7.207031 1.429688 -7.714844 1.84375 -8.144531 C 2.25 -8.570312 2.722656 -8.894531 3.265625 -9.121094 C 3.804688 -9.347656 4.371094 -9.460938 4.960938 -9.460938 C 5.574219 -9.460938 6.148438 -9.34375 6.691406 -9.113281 C 7.234375 -8.882812 7.703125 -8.5625 8.097656 -8.144531 M 7.128906 -1.59375 C 7.371094 -1.988281 7.546875 -2.4375 7.660156 -2.9375 C 7.769531 -3.433594 7.824219 -3.992188 7.824219 -4.609375 C 7.824219 -5.242188 7.761719 -5.824219 7.640625 -6.355469 C 7.515625 -6.882812 7.335938 -7.335938 7.097656 -7.707031 C 6.859375 -8.078125 6.558594 -8.363281 6.199219 -8.570312 C 5.835938 -8.777344 5.425781 -8.878906 4.960938 -8.878906 C 4.441406 -8.878906 3.996094 -8.761719 3.632812 -8.523438 C 3.269531 -8.285156 2.972656 -7.964844 2.742188 -7.566406 C 2.523438 -7.183594 2.363281 -6.734375 2.257812 -6.222656 C 2.148438 -5.710938 2.097656 -5.171875 2.097656 -4.609375 C 2.097656 -3.984375 2.152344 -3.421875 2.265625 -2.917969 C 2.378906 -2.414062 2.554688 -1.964844 2.800781 -1.574219 C 3.035156 -1.195312 3.328125 -0.894531 3.683594 -0.679688 C 4.039062 -0.464844 4.464844 -0.359375 4.960938 -0.359375 C 5.425781 -0.359375 5.84375 -0.464844 6.21875 -0.683594 C 6.589844 -0.902344 6.894531 -1.203125 7.128906 -1.59375 Z "/>
</g>
<g id="glyph-1-5">
<path d="M 11.757812 0 L 7.675781 0 L 7.675781 -0.460938 C 7.824219 -0.464844 8.011719 -0.480469 8.246094 -0.507812 C 8.476562 -0.535156 8.636719 -0.570312 8.722656 -0.617188 C 8.859375 -0.699219 8.957031 -0.796875 9.019531 -0.902344 C 9.082031 -1.007812 9.113281 -1.140625 9.113281 -1.300781 L 9.113281 -8.019531 L 9.015625 -8.019531 L 5.867188 -0.148438 L 5.539062 -0.148438 L 2.539062 -8.183594 L 2.453125 -8.183594 L 2.453125 -2.667969 C 2.453125 -2.136719 2.488281 -1.730469 2.554688 -1.453125 C 2.621094 -1.175781 2.726562 -0.972656 2.863281 -0.851562 C 2.960938 -0.761719 3.15625 -0.675781 3.457031 -0.59375 C 3.757812 -0.511719 3.953125 -0.464844 4.042969 -0.460938 L 4.042969 0 L 0.3125 0 L 0.3125 -0.460938 C 0.507812 -0.480469 0.710938 -0.511719 0.925781 -0.558594 C 1.140625 -0.609375 1.308594 -0.679688 1.425781 -0.773438 C 1.578125 -0.894531 1.683594 -1.082031 1.738281 -1.335938 C 1.792969 -1.585938 1.824219 -2.007812 1.824219 -2.597656 L 1.824219 -7.324219 C 1.824219 -7.597656 1.789062 -7.820312 1.726562 -7.996094 C 1.660156 -8.167969 1.566406 -8.308594 1.445312 -8.417969 C 1.3125 -8.535156 1.144531 -8.621094 0.949219 -8.679688 C 0.753906 -8.734375 0.5625 -8.765625 0.371094 -8.777344 L 0.371094 -9.238281 L 3.519531 -9.238281 L 6.167969 -2.304688 L 8.425781 -8.105469 C 8.507812 -8.316406 8.578125 -8.539062 8.636719 -8.773438 C 8.695312 -9.003906 8.726562 -9.160156 8.730469 -9.238281 L 11.746094 -9.238281 L 11.746094 -8.777344 C 11.625 -8.773438 11.46875 -8.753906 11.277344 -8.71875 C 11.089844 -8.683594 10.953125 -8.648438 10.867188 -8.621094 C 10.71875 -8.566406 10.617188 -8.480469 10.566406 -8.359375 C 10.515625 -8.238281 10.488281 -8.105469 10.488281 -7.960938 L 10.488281 -1.300781 C 10.488281 -1.148438 10.515625 -1.023438 10.566406 -0.917969 C 10.617188 -0.8125 10.71875 -0.722656 10.867188 -0.644531 C 10.945312 -0.601562 11.082031 -0.5625 11.28125 -0.523438 C 11.480469 -0.488281 11.640625 -0.464844 11.757812 -0.460938 Z "/>
</g>
</g>
</defs>
<g fill="rgb(100%, 100%, 100%)" fill-opacity="1">
<use xlink:href="#glyph-0-0" x="30" y="33.080078"/>
<use xlink:href="#glyph-0-1" x="43" y="33.080078"/>
<use xlink:href="#glyph-0-2" x="56" y="33.080078"/>
<use xlink:href="#glyph-0-3" x="69" y="33.080078"/>
<use xlink:href="#glyph-0-4" x="76" y="33.080078"/>
<use xlink:href="#glyph-0-5" x="89" y="33.080078"/>
<use xlink:href="#glyph-0-3" x="102" y="33.080078"/>
<use xlink:href="#glyph-0-6" x="109" y="33.080078"/>
<use xlink:href="#glyph-0-7" x="122" y="33.080078"/>
</g>
<g fill="rgb(100%, 100%, 100%)" fill-opacity="1">
<use xlink:href="#glyph-1-0" x="135" y="32.226562"/>
<use xlink:href="#glyph-1-1" x="138" y="32.226562"/>
<use xlink:href="#glyph-1-2" x="145" y="32.226562"/>
<use xlink:href="#glyph-1-0" x="149" y="32.226562"/>
</g>
<g fill="rgb(100%, 100%, 100%)" fill-opacity="1">
<use xlink:href="#glyph-0-8" x="152" y="33.080078"/>
<use xlink:href="#glyph-0-9" x="165" y="33.080078"/>
<use xlink:href="#glyph-0-10" x="178" y="33.080078"/>
<use xlink:href="#glyph-0-3" x="191" y="33.080078"/>
<use xlink:href="#glyph-0-11" x="198" y="33.080078"/>
<use xlink:href="#glyph-0-12" x="211" y="33.080078"/>
<use xlink:href="#glyph-0-7" x="224" y="33.080078"/>
<use xlink:href="#glyph-0-3" x="237" y="33.080078"/>
</g>
<g fill="rgb(100%, 100%, 100%)" fill-opacity="1">
<use xlink:href="#glyph-1-3" x="244" y="32.226562"/>
<use xlink:href="#glyph-1-4" x="252" y="32.226562"/>
<use xlink:href="#glyph-1-5" x="262" y="32.226562"/>
<use xlink:href="#glyph-1-4" x="274" y="32.226562"/>
</g>
</svg>
